<svg width="239" height="273" viewBox="0 0 239 273" fill="none" xmlns="http://www.w3.org/2000/svg">
<g clip-path="url(#clip0_39_22335)">
<path d="M108.301 0.141839C108.301 0.141839 62.9605 2.44658 33.6953 40.9004C4.43013 79.3601 3.61606 131.914 1.84045 174.481C0.0648335 217.048 24.9588 249.255 61.4504 253.504C97.9419 257.753 107.776 225.073 148.715 206.682C189.654 188.292 203.299 189.61 227.798 151.847C252.296 114.085 235.16 56.0349 190.758 26.2564C146.349 -3.53393 108.301 0.141839 108.301 0.141839Z" fill="#92E3A9"/>
<path opacity="0.7" d="M108.301 0.141839C108.301 0.141839 62.9605 2.44658 33.6953 40.9004C4.43013 79.3601 3.61606 131.914 1.84045 174.481C0.0648335 217.048 24.9588 249.255 61.4504 253.504C97.9419 257.753 107.776 225.073 148.715 206.682C189.654 188.292 203.299 189.61 227.798 151.847C252.296 114.085 235.16 56.0349 190.758 26.2564C146.349 -3.53393 108.301 0.141839 108.301 0.141839Z" fill="white"/>
<path d="M32.5023 201.872C24.1197 201.872 17.3181 208.68 17.3181 217.083C17.3181 225.487 24.1138 232.295 32.5023 232.295C40.8907 232.295 47.6864 225.487 47.6864 217.083C47.6864 208.68 40.8907 201.872 32.5023 201.872ZM32.5023 222.579C29.4702 222.579 27.0103 220.115 27.0103 217.077C27.0103 214.04 29.4702 211.576 32.5023 211.576C35.5344 211.576 37.9943 214.04 37.9943 217.077C37.9943 220.115 35.5344 222.579 32.5023 222.579Z" fill="#037EC8"/>
<path d="M32.5022 177.926C27.3287 177.926 23.1345 182.128 23.1345 187.311C23.1345 192.493 27.3287 196.695 32.5022 196.695C37.6757 196.695 41.8699 192.493 41.8699 187.311C41.8699 182.128 37.6757 177.926 32.5022 177.926ZM32.5022 190.703C30.6322 190.703 29.1162 189.184 29.1162 187.311C29.1162 185.437 30.6322 183.919 32.5022 183.919C34.3722 183.919 35.8883 185.437 35.8883 187.311C35.8883 189.184 34.3722 190.703 32.5022 190.703Z" fill="#037EC8"/>
<path d="M49.6803 173.122H15.3242C14.0406 173.122 13 174.164 13 175.45V234.387C13 235.673 14.0406 236.715 15.3242 236.715H49.6803C50.9639 236.715 52.0045 235.673 52.0045 234.387V175.45C52.0045 174.164 50.9639 173.122 49.6803 173.122Z" stroke="url(#paint0_linear_39_22335)" stroke-miterlimit="10"/>
<path d="M184.502 194.75C176.12 194.75 169.318 201.558 169.318 209.962C169.318 218.365 176.114 225.173 184.502 225.173C192.891 225.173 199.686 218.365 199.686 209.962C199.686 201.558 192.891 194.75 184.502 194.75ZM184.502 215.457C181.47 215.457 179.01 212.993 179.01 209.956C179.01 206.918 181.47 204.454 184.502 204.454C187.534 204.454 189.994 206.918 189.994 209.956C189.994 212.993 187.534 215.457 184.502 215.457Z" fill="#92E3A9"/>
<path d="M184.502 170.804C179.329 170.804 175.135 175.006 175.135 180.189C175.135 185.372 179.329 189.573 184.502 189.573C189.676 189.573 193.87 185.372 193.87 180.189C193.87 175.006 189.676 170.804 184.502 170.804ZM184.502 183.581C182.632 183.581 181.116 182.062 181.116 180.189C181.116 178.316 182.632 176.797 184.502 176.797C186.372 176.797 187.888 178.316 187.888 180.189C187.888 182.062 186.372 183.581 184.502 183.581Z" fill="#037EC8"/>
<path d="M201.68 166H167.324C166.041 166 165 167.042 165 168.328V227.265C165 228.551 166.041 229.593 167.324 229.593H201.68C202.964 229.593 204.005 228.551 204.005 227.265V168.328C204.005 167.042 202.964 166 201.68 166Z" stroke="url(#paint1_linear_39_22335)" stroke-miterlimit="10"/>
<path d="M55.7401 25.7304V35.6585" stroke="#037EC8" stroke-linecap="round" stroke-linejoin="round"/>
<path d="M60.6953 30.6945H50.7849" stroke="#037EC8" stroke-linecap="round" stroke-linejoin="round"/>
<path d="M34.0553 86.5461V93.3717" stroke="#037EC8" stroke-linecap="round" stroke-linejoin="round"/>
<path d="M37.4649 89.956H30.6515" stroke="#037EC8" stroke-linecap="round" stroke-linejoin="round"/>
<path d="M183.962 20.7663V27.5919" stroke="#92E3A9" stroke-linecap="round" stroke-linejoin="round"/>
<path d="M187.366 24.1762H180.552" stroke="#92E3A9" stroke-linecap="round" stroke-linejoin="round"/>
<path d="M82.4038 222V228.831" stroke="#037EC8" stroke-linecap="round" stroke-linejoin="round"/>
<path d="M85.8134 225.416H79" stroke="#037EC8" stroke-linecap="round" stroke-linejoin="round"/>
<path d="M176.216 80.9557V89.0282" stroke="#037EC8" stroke-linecap="round" stroke-linejoin="round"/>
<path d="M180.245 84.9919H172.193" stroke="#037EC8" stroke-linecap="round" stroke-linejoin="round"/>
<path d="M196.35 24.4894V32.556" stroke="#92E3A9" stroke-linecap="round" stroke-linejoin="round"/>
<path d="M200.379 28.5197H192.321" stroke="#92E3A9" stroke-linecap="round" stroke-linejoin="round"/>
<path d="M19.1896 62.0331C19.1896 63.5755 17.939 64.8283 16.3994 64.8283C14.8597 64.8283 13.6091 63.5755 13.6091 62.0331C13.6091 60.4907 14.8597 59.2379 16.3994 59.2379C17.939 59.2379 19.1896 60.4907 19.1896 62.0331Z" stroke="#92E3A9" stroke-linecap="round" stroke-linejoin="round"/>
<path d="M142.58 170.795C142.58 172.338 141.33 173.59 139.79 173.59C138.251 173.59 137 172.338 137 170.795C137 169.253 138.251 168 139.79 168C141.33 168 142.58 169.253 142.58 170.795Z" stroke="#037EC8" stroke-linecap="round" stroke-linejoin="round"/>
<path d="M209.357 75.6843C209.357 77.2267 208.107 78.4795 206.567 78.4795C205.027 78.4795 203.777 77.2267 203.777 75.6843C203.777 74.1419 205.027 72.889 206.567 72.889C208.107 72.889 209.357 74.1419 209.357 75.6843Z" stroke="#037EC8" stroke-linecap="round" stroke-linejoin="round"/>
<path d="M34.0552 15.8023C35.2542 15.8023 36.2261 14.8286 36.2261 13.6275C36.2261 12.4265 35.2542 11.4528 34.0552 11.4528C32.8563 11.4528 31.8844 12.4265 31.8844 13.6275C31.8844 14.8286 32.8563 15.8023 34.0552 15.8023Z" stroke="#92E3A9" stroke-linecap="round" stroke-linejoin="round"/>
<path d="M65.6506 170.321C66.8495 170.321 67.8214 169.347 67.8214 168.146C67.8214 166.945 66.8495 165.971 65.6506 165.971C64.4517 165.971 63.4797 166.945 63.4797 168.146C63.4797 169.347 64.4517 170.321 65.6506 170.321Z" stroke="#037EC8" stroke-linecap="round" stroke-linejoin="round"/>
<path d="M15.4732 116.951C16.6721 116.951 17.6441 115.977 17.6441 114.776C17.6441 113.575 16.6721 112.602 15.4732 112.602C14.2743 112.602 13.3024 113.575 13.3024 114.776C13.3024 115.977 14.2743 116.951 15.4732 116.951Z" stroke="#037EC8" stroke-linecap="round" stroke-linejoin="round"/>
<path d="M4.57178 133.74H9.79834V127.328C9.79834 125.709 11.1079 124.403 12.7184 124.403C14.3347 124.403 15.6384 125.715 15.6384 127.328V145.595C15.6384 147.338 17.0483 148.745 18.7826 148.745C20.5228 148.745 21.9268 147.332 21.9268 145.595V112.507C21.9268 110.391 23.6375 108.678 25.7494 108.678C27.8612 108.678 29.572 110.391 29.572 112.507V156.829C29.572 158.821 31.1824 160.434 33.1704 160.434C35.1583 160.434 36.7688 158.821 36.7688 156.829V102.756C36.7688 100.144 38.8807 98.0285 41.488 98.0285C44.0954 98.0285 46.2073 100.144 46.2073 102.756V156.587C46.2073 158.702 47.918 160.416 50.0299 160.416C52.1417 160.416 53.8524 158.702 53.8524 156.587V113.689C53.8524 111.201 55.864 109.186 58.3475 109.186C60.831 109.186 62.8426 111.201 62.8426 113.689V145.335C62.8426 147.202 64.3527 148.709 66.2109 148.709C68.075 148.709 69.5793 147.196 69.5793 145.335V128.132C69.5793 126.353 71.0187 124.911 72.7943 124.911C74.5699 124.911 76.0093 126.353 76.0093 128.132V133.734H81.9909" stroke="#037EC8" stroke-miterlimit="10"/>
<path d="M77.8557 133.74H83.0823V127.328C83.0823 125.709 84.3919 124.403 86.0023 124.403C87.6186 124.403 88.9223 125.715 88.9223 127.328V145.595C88.9223 147.338 90.3322 148.745 92.0665 148.745C93.8067 148.745 95.2107 147.332 95.2107 145.595V112.507C95.2107 110.391 96.9214 108.678 99.0333 108.678C101.145 108.678 102.856 110.391 102.856 112.507V156.829C102.856 158.821 104.466 160.434 106.454 160.434C108.442 160.434 110.053 158.821 110.053 156.829V102.756C110.053 100.144 112.165 98.0285 114.772 98.0285C117.379 98.0285 119.491 100.144 119.491 102.756V156.587C119.491 158.702 121.202 160.416 123.314 160.416C125.426 160.416 127.136 158.702 127.136 156.587V113.689C127.136 111.201 129.148 109.186 131.631 109.186C134.115 109.186 136.127 111.201 136.127 113.689V145.335C136.127 147.202 137.637 148.709 139.495 148.709C141.359 148.709 142.863 147.196 142.863 145.335V128.132C142.863 126.353 144.303 124.911 146.078 124.911C147.854 124.911 149.293 126.353 149.293 128.132V133.734H155.275" stroke="#037EC8" stroke-miterlimit="10"/>
<path d="M151.14 133.74H156.366V127.328C156.366 125.709 157.676 124.403 159.286 124.403C160.902 124.403 162.206 125.715 162.206 127.328V145.595C162.206 147.338 163.616 148.745 165.35 148.745C167.091 148.745 168.495 147.332 168.495 145.595V112.507C168.495 110.391 170.205 108.678 172.317 108.678C174.429 108.678 176.14 110.391 176.14 112.507V156.829C176.14 158.821 177.75 160.434 179.738 160.434C181.726 160.434 183.337 158.821 183.337 156.829V102.756C183.337 100.144 185.448 98.0285 188.056 98.0285C190.663 98.0285 192.775 100.144 192.775 102.756V156.587C192.775 158.702 194.486 160.416 196.598 160.416C198.709 160.416 200.42 158.702 200.42 156.587V113.689C200.42 111.201 202.432 109.186 204.915 109.186C207.399 109.186 209.41 111.201 209.41 113.689V145.335C209.41 147.202 210.921 148.709 212.779 148.709C214.643 148.709 216.147 147.196 216.147 145.335V128.132C216.147 126.353 217.586 124.911 219.362 124.911C221.138 124.911 222.577 126.353 222.577 128.132V133.734H228.559" stroke="#037EC8" stroke-miterlimit="10"/>
<path d="M109.941 272.705C141.585 272.705 167.238 266.593 167.238 259.053C167.238 251.514 141.585 245.402 109.941 245.402C78.296 245.402 52.6431 251.514 52.6431 259.053C52.6431 266.593 78.296 272.705 109.941 272.705Z" stroke="#DEF7E5" stroke-linecap="round" stroke-linejoin="round"/>
<path d="M89.6007 27.4856C89.6007 27.4856 90.5327 24.5899 91.3586 22.3147C92.1845 20.0395 93.6297 18.1779 94.3553 17.6579C95.0809 17.1378 98.6911 15.8968 105.711 17.4511C112.731 19.0053 115.934 21.5878 117.067 22.5215C118.205 23.4552 118.205 25.0035 118.412 26.8651C118.618 28.7266 119.031 30.4876 119.031 30.4876C119.031 30.4876 118.305 28.9334 109.427 27.6924C100.549 26.4514 97.1397 25.624 94.5618 26.8651C91.978 28.1061 88.9872 29.6603 88.9872 29.6603L89.6066 27.4856H89.6007Z" fill="#263238" stroke="#263238" stroke-linecap="round" stroke-linejoin="round"/>
<path d="M91.8128 42.425C91.8128 42.425 91.0459 42.425 87.6775 41.7513C84.3092 41.0777 81.5543 38.5661 84.6159 34.3703C87.6775 30.1744 89.6655 26.9892 89.6655 26.9892C89.6655 26.9892 90.9338 24.6135 95.7887 23.3666C100.644 22.1196 111.173 25.2872 115.303 26.871C119.432 28.4547 122.736 30.3754 124.287 33.0938C125.838 35.8063 124.494 36.5982 122.016 39.2043C119.538 41.8045 117.987 42.5964 113.858 43.7311C109.728 44.8598 91.8128 42.425 91.8128 42.425Z" fill="#263238" stroke="#263238" stroke-linecap="round" stroke-linejoin="round"/>
<path d="M95.0278 28.6557C95.0278 28.6557 91.0459 32.3373 91.0459 34.1752C91.0459 36.0131 91.3527 42.1473 91.8128 44.452C92.2729 46.7509 95.6413 53.8069 97.0157 54.8825C98.3961 55.958 103.139 54.7288 103.139 54.7288L105.434 57.7959L117.833 49.8239C117.833 49.8239 115.846 45.3739 115.692 44.9189C115.539 44.4639 115.539 41.6982 115.539 41.6982C115.539 41.6982 117.373 40.7763 117.987 39.2457C118.6 37.7151 118.6 35.7176 118.6 35.7176C118.6 35.7176 113.244 30.3517 107.274 28.5079C101.304 26.67 95.0278 28.6616 95.0278 28.6616V28.6557Z" fill="white" stroke="#263238" stroke-linecap="round" stroke-linejoin="round"/>
<path d="M96.1014 34.3289L96.4081 36.7814C96.4081 36.7814 94.8802 38.4656 94.8802 39.6948C94.8802 40.924 97.0216 40.924 97.0216 40.924" stroke="#263238" stroke-linecap="round" stroke-linejoin="round"/>
<path d="M100.537 33.5606L100.691 34.6362L104.519 33.4129" stroke="#263238" stroke-linecap="round" stroke-linejoin="round"/>
<path d="M93.0398 36.7814L92.6387 38.4892L95.0868 37.1123" stroke="#263238" stroke-linecap="round" stroke-linejoin="round"/>
<path d="M103.634 35.0912C104.038 35.0912 104.366 34.8081 104.366 34.4589C104.366 34.1097 104.038 33.8266 103.634 33.8266C103.23 33.8266 102.903 34.1097 102.903 34.4589C102.903 34.8081 103.23 35.0912 103.634 35.0912Z" fill="#263238"/>
<path d="M94.7799 38.4952C95.1839 38.4952 95.5114 38.2121 95.5114 37.8628C95.5114 37.5136 95.1839 37.2305 94.7799 37.2305C94.376 37.2305 94.0485 37.5136 94.0485 37.8628C94.0485 38.2121 94.376 38.4952 94.7799 38.4952Z" fill="#263238"/>
<path d="M98.4788 32.2487C98.4788 32.2487 99.3105 29.3057 102.095 28.7325C104.059 28.3306 105.298 29.6662 105.298 29.6662" stroke="#263238" stroke-width="2" stroke-linecap="round" stroke-linejoin="round"/>
<path d="M95.069 33.6966C95.069 33.6966 94.1429 32.9815 93.4173 33.2829C91.9897 33.8738 91.8658 35.3512 91.8658 35.3512" stroke="#263238" stroke-width="2" stroke-linecap="round" stroke-linejoin="round"/>
<path d="M111.799 32.6624C113.557 34.1102 113.244 36.285 114.589 35.7649C115.568 35.3867 116.595 34.6835 117.084 34.3289C115.58 33.0406 113.097 31.12 110.247 29.7135C110.247 30.1508 110.365 31.4745 111.805 32.6624H111.799Z" fill="#263238" stroke="#263238" stroke-linecap="round" stroke-linejoin="round"/>
<path d="M103.145 54.7229L108.082 51.0708L105.44 57.79L103.145 54.7229Z" fill="#263238" stroke="#263238" stroke-linecap="round" stroke-linejoin="round"/>
<path d="M101.735 236.095C101.735 236.095 94.0955 241.472 92.8567 241.679C91.6179 241.886 86.2497 242.92 85.6303 244.161C85.0109 245.402 84.598 247.057 86.6627 247.471C88.7273 247.884 98.0183 248.505 101.322 248.505C104.625 248.505 108.342 248.712 110.2 248.298C112.058 247.884 114.949 248.712 115.981 244.575C117.013 240.438 116.807 237.129 116.187 234.854C115.568 232.578 101.735 236.095 101.735 236.095Z" fill="white" stroke="#263238" stroke-linecap="round" stroke-linejoin="round"/>
<path d="M111.822 246.62C111.822 246.62 105.298 245.893 99.3164 246.076C94.0426 246.235 86.9342 245.124 85.3297 244.858C84.9404 245.958 84.964 247.134 86.6629 247.471C88.7276 247.884 98.0186 248.505 101.322 248.505C104.625 248.505 108.342 248.712 110.2 248.298C111.185 248.079 112.454 248.203 113.586 247.76L111.822 246.62Z" stroke="#263238" stroke-linecap="round" stroke-linejoin="round"/>
<path d="M100.119 244.185H100.113C99.9416 244.185 99.8059 244.037 99.8118 243.866L99.8354 242.79C99.8354 242.619 99.9593 242.501 100.154 242.489C100.325 242.489 100.461 242.636 100.455 242.808L100.431 243.883C100.431 244.049 100.29 244.185 100.119 244.185Z" fill="white" stroke="#263238" stroke-linecap="round" stroke-linejoin="round"/>
<path d="M100.142 243.417H100.13C99.7883 243.411 99.5169 243.127 99.5228 242.784L99.6172 238.618C99.6231 238.275 99.918 238.027 100.248 238.009C100.591 238.015 100.862 238.299 100.856 238.642L100.762 242.808C100.756 243.145 100.478 243.417 100.142 243.417Z" fill="white" stroke="#263238" stroke-linecap="round" stroke-linejoin="round"/>
<path d="M92.8451 242.607C92.5089 242.607 92.1903 242.424 92.0251 242.105C91.7833 241.626 91.7833 241.135 92.0251 240.71C92.4971 239.889 93.6887 239.729 94.1783 239.699C94.6856 239.664 95.128 240.06 95.1575 240.574C95.187 241.088 94.7977 241.525 94.2845 241.555C94.1193 241.567 93.9187 241.602 93.7654 241.644C93.7713 241.998 93.5825 242.341 93.2521 242.506C93.1165 242.571 92.9749 242.607 92.8333 242.607H92.8451Z" fill="white" stroke="#263238" stroke-linecap="round" stroke-linejoin="round"/>
<path d="M95.1398 241.189C94.8035 241.189 94.485 241.005 94.3198 240.686C94.078 240.208 94.078 239.717 94.3198 239.292C94.7917 238.47 95.9834 238.311 96.473 238.281C96.9803 238.246 97.4227 238.642 97.4522 239.156C97.4817 239.67 97.0924 240.107 96.5792 240.137C96.414 240.149 96.2134 240.184 96.06 240.225C96.0659 240.58 95.8772 240.923 95.5468 241.088C95.4111 241.153 95.2696 241.189 95.128 241.189H95.1398Z" fill="white" stroke="#263238" stroke-linecap="round" stroke-linejoin="round"/>
<path d="M97.4286 239.77C97.0924 239.77 96.7738 239.587 96.6086 239.268C96.3668 238.789 96.3668 238.299 96.6086 237.873C97.0806 237.052 98.2722 236.892 98.7618 236.863C99.275 236.827 99.7115 237.223 99.741 237.737C99.7705 238.252 99.3812 238.689 98.868 238.718C98.7028 238.73 98.5022 238.766 98.3489 238.807C98.3548 239.162 98.166 239.504 97.8356 239.67C97.7 239.735 97.5584 239.77 97.4168 239.77H97.4286Z" fill="white" stroke="#263238" stroke-linecap="round" stroke-linejoin="round"/>
<path d="M87.3295 243.316C87.3295 243.316 87.4298 243.517 89.4472 243.517C91.4647 243.517 92.0664 244.427 92.267 245.13" stroke="#263238" stroke-linecap="round" stroke-linejoin="round"/>
<path d="M106.413 242.613C106.926 242.193 107.469 241.88 107.982 241.803" stroke="#263238" stroke-linecap="round" stroke-linejoin="round"/>
<path d="M103.652 245.94C103.652 245.94 104.478 244.575 105.569 243.411" stroke="#263238" stroke-linecap="round" stroke-linejoin="round"/>
<path d="M93.3171 134.946C93.3171 134.946 93.1106 147.976 93.1106 161.421C93.1106 174.865 93.8008 187.163 95.4525 191.093C97.1043 195.023 101.534 215.405 101.947 218.094C102.36 220.783 101.741 224.919 101.741 226.988C101.741 229.056 102.36 230.711 102.36 230.711C102.36 230.711 101.328 232.366 101.328 233.4C101.328 234.434 100.089 236.502 101.328 237.123C102.567 237.743 103.393 238.364 109.587 239.398C115.781 240.432 119.704 234.434 120.736 232.779C121.768 231.125 115.893 191.713 115.067 184.468C114.241 177.229 114.79 162.242 116.028 156.451C117.267 150.659 116.648 137.215 115.822 134.526C114.996 131.837 106.944 130.183 102.608 130.596C98.2723 131.01 93.3171 134.94 93.3171 134.94V134.946Z" fill="#263238" stroke="#263238" stroke-linecap="round" stroke-linejoin="round"/>
<path d="M109.215 140.737C109.215 140.737 104.744 172.478 104.744 177.649C104.744 182.819 107.015 188.611 107.634 191.093C108.254 193.575 110.619 221.61 111.238 223.472C111.858 225.333 112.064 230.297 112.064 230.297C112.064 230.297 110.413 230.918 110.206 232.159C110 233.4 111.032 234.227 111.032 235.261C111.032 236.295 110 237.95 109.587 239.398C109.174 240.846 109.793 242.294 109.793 242.294C109.793 242.294 105.664 247.878 103.806 249.74C101.947 251.601 97.1987 255.118 94.5146 256.979C91.8305 258.841 86.4624 261.116 86.2559 264.011C86.0495 266.907 88.1141 269.389 93.2758 269.596C98.4375 269.803 107.728 270.01 112.89 269.389C118.052 268.769 128.169 262.977 129.82 260.909C131.472 258.841 132.504 258.634 132.504 252.842C132.504 247.051 132.711 241.466 132.504 240.846C132.298 240.225 131.885 239.191 132.298 235.882C132.711 232.572 131.679 230.297 131.679 230.297C131.679 230.297 132.298 228.436 132.504 227.195C132.711 225.954 131.059 223.058 131.059 223.058C131.059 223.058 132.204 201.642 132.204 196.884C132.204 192.127 126.216 181.785 126.216 181.785C126.216 181.785 127.042 177.442 127.042 176.614C127.042 175.787 125.803 173.719 125.803 173.719C125.803 173.719 131.926 156.664 132.546 154.388C133.165 152.113 134.817 144.667 135.23 142.185C135.643 139.703 134.198 134.532 132.339 131.43C130.481 128.327 122.429 124.604 119.538 127.086C116.648 129.568 109.215 140.737 109.215 140.737Z" fill="#263238" stroke="#263238" stroke-linecap="round" stroke-linejoin="round"/>
<path d="M91.6653 135.153C91.6653 135.153 97.2399 144.874 100.956 146.735C104.673 148.597 108.389 145.908 113.551 140.324C118.712 134.739 121.809 130.395 125.526 131.843C129.242 133.291 136.056 147.356 137.088 149.011C138.12 150.665 137.914 135.359 135.849 130.602C133.784 125.845 123.255 123.983 110.454 125.638C97.6528 127.293 91.6653 135.153 91.6653 135.153Z" fill="white" stroke="#263238" stroke-linecap="round" stroke-linejoin="round"/>
<path d="M90.633 128.534C90.633 128.534 90.2201 132.257 90.2201 134.325C90.2201 136.394 93.3171 136.187 93.3171 136.187C93.3171 136.187 102.608 132.257 112.931 131.636C123.255 131.016 133.578 133.705 135.23 133.705C136.882 133.705 137.707 132.257 137.707 130.602C137.707 128.948 135.849 125.224 135.849 125.224C135.849 125.224 131.513 120.467 118.713 120.054C105.912 119.64 96.6206 119.847 93.9365 122.122C91.2524 124.397 90.633 128.534 90.633 128.534Z" fill="#666666" stroke="#263238" stroke-linecap="round" stroke-linejoin="round"/>
<path d="M117.149 47.46C117.149 47.46 105.563 56.3008 103.192 58.1446C100.821 59.9943 102.797 61.5722 103.322 61.9681C103.847 62.364 104.773 63.8178 104.773 63.8178C104.773 63.8178 101.216 67.1154 96.0837 70.5488C90.9456 73.9764 90.0254 74.5083 88.5801 76.3521C87.1289 78.2018 81.7313 84.265 81.7313 84.265C81.7313 84.265 82.5218 80.8375 82.5218 78.4618C82.5218 76.0861 83.6072 73.2082 82.4215 71.2284C81.2358 69.2487 78.3393 66.7431 75.7084 66.7431C73.0774 66.7431 70.706 67.6649 69.125 70.1706C67.5441 72.6763 66.323 77.7999 65.4027 83.3372C64.4825 88.8804 60.4298 95.6292 62.1465 98.2708C63.8572 100.906 66.6238 104.21 70.3107 104.21C73.9977 104.21 77.2893 103.944 79 102.36C80.7108 100.776 88.8397 97.3252 89.7658 96.6634C90.692 96.0015 92.9277 94.9496 92.9277 94.9496C92.9277 94.9496 92.7979 105.108 92.267 109.198C91.742 113.287 88.3146 123.05 88.0551 125.159C87.7896 127.269 91.0813 129.379 91.0813 129.379C91.0813 129.379 94.5027 125.815 104.643 124.894C114.784 123.972 126.505 124.894 129.006 125.289C131.507 125.685 135.065 127.399 136.646 125.815C138.227 124.232 139.277 124.232 139.017 120.668C138.752 117.105 138.227 113.281 138.227 111.697C138.227 110.114 139.282 97.4493 139.282 97.0534C139.282 96.6575 142.704 81.6175 142.704 81.6175C142.704 81.6175 150.473 79.2419 155.741 78.19C161.009 77.138 163.244 69.8811 161.534 65.6557C159.823 61.4362 153.104 57.0809 150.207 55.1011C147.311 53.1214 137.696 52.7255 136.38 53.2514C135.065 53.7774 130.982 52.9855 127.821 52.5896C124.659 52.1936 122.948 52.1936 122.423 52.3236L121.898 52.4536C121.898 52.4536 121.107 48.0983 119.922 47.3064C118.736 46.5145 117.155 47.4364 117.155 47.4364L117.149 47.46Z" fill="#92E3A9" stroke="#263238" stroke-linecap="round" stroke-linejoin="round"/>
<path d="M147.229 76.092C148.037 76.2516 148.786 76.3402 149.447 76.3757" stroke="#263238" stroke-linecap="round" stroke-linejoin="round"/>
<path d="M133.513 55.9285C133.513 55.9285 130.092 57.7782 131.012 60.8098C131.932 63.8414 138.12 70.8384 141.023 73.2082C142.356 74.3014 143.778 75.0342 145.14 75.5129" stroke="#263238" stroke-linecap="round" stroke-linejoin="round"/>
<path d="M139.831 72.9422C139.831 72.9422 142.067 76.1098 144.308 77.0317C146.544 77.9536 148.391 77.8236 148.391 77.8236" stroke="#263238" stroke-linecap="round" stroke-linejoin="round"/>
<path d="M81.1179 93.4958C80.6754 95.2214 79.7847 96.557 79.7847 96.557" stroke="#263238" stroke-linecap="round" stroke-linejoin="round"/>
<path d="M81.7254 84.265C81.7254 84.265 81.3656 89.17 81.3656 91.6757" stroke="#263238" stroke-linecap="round" stroke-linejoin="round"/>
<path d="M81.4954 95.901C81.4954 95.901 80.4394 98.4067 78.8644 98.8026" stroke="#263238" stroke-linecap="round" stroke-linejoin="round"/>
<path d="M91.8954 84.0286L92.916 94.9496L90.0549 86.2684" stroke="#263238" stroke-linecap="round" stroke-linejoin="round"/>
<path d="M128.641 73.4741C128.641 73.4741 129.956 79.2773 134.569 80.5952C139.176 81.913 142.073 81.5171 142.073 81.5171" stroke="#263238" stroke-linecap="round" stroke-linejoin="round"/>
<path d="M97.818 120.958C97.2399 123.203 97.3697 124.74 98.8916 125.431" stroke="#263238" stroke-linecap="round" stroke-linejoin="round"/>
<path d="M100.266 113.346C99.9534 114.664 99.5641 115.923 99.0981 117.158C99.0155 117.377 98.9329 117.589 98.8562 117.796" stroke="#263238" stroke-linecap="round" stroke-linejoin="round"/>
<path d="M104.413 71.6126C103.676 73.7873 102.98 76.0625 102.608 77.8531C101.576 82.8172 101.369 94.6068 101.369 101.432C101.369 105.48 101.151 108.731 100.626 111.609" stroke="#263238" stroke-linecap="round" stroke-linejoin="round"/>
<path d="M105.499 56.549C105.499 56.549 103.847 59.4447 104.673 60.272C105.499 61.0994 107.15 64.2019 107.15 64.2019C107.15 64.2019 106.071 66.8731 104.932 70.0997" stroke="#263238" stroke-linecap="round" stroke-linejoin="round"/>
<path d="M102.826 101.22C101.546 101.22 100.461 100.841 99.5877 100.091C97.2989 98.123 96.5084 93.8031 97.0393 86.0852C97.0629 85.7779 97.0865 85.4647 97.1219 85.1515C97.1868 77.1262 101.458 67.9427 101.676 67.4167C101.806 67.0976 102.407 65.8566 102.726 65.9866C103.045 66.1166 103.322 65.3661 103.192 65.6852C103.186 65.703 103.086 65.9393 102.927 66.353C103.646 64.7338 104.154 63.6937 104.224 63.546C104.378 63.2387 104.743 63.1086 105.056 63.2623C105.363 63.4159 105.487 63.7882 105.339 64.0955C105.274 64.2196 99.3281 76.3993 98.3725 85.2224C98.3725 85.9493 98.4079 86.6407 98.4905 87.2907C98.6852 88.7741 99.2692 90.5883 100.927 90.7892C103.475 91.0965 107.687 87.6276 109.893 81.9721C113.161 73.5746 120.771 56.0644 120.848 55.8871C120.978 55.5857 121.32 55.438 121.627 55.5503C121.933 55.6625 122.104 55.9935 122.01 56.3067C121.98 56.4072 119.114 66.3235 117.692 77.5163C116.353 88.0353 111.793 99.3818 104.62 101.001C103.994 101.143 103.398 101.214 102.844 101.214L102.826 101.22ZM98.1188 90.2219C98.1188 94.9555 98.8562 97.8276 100.396 99.1513C101.352 99.9668 102.638 100.18 104.336 99.7955C109.952 98.5249 114.937 89.3 116.453 77.3626C117.114 72.1622 118.081 67.2335 118.942 63.4219C116.429 69.2901 112.973 77.4572 111.038 82.4212C108.814 88.1299 104.213 92.438 100.768 92.0184C100.024 91.9298 98.9211 91.5516 98.1247 90.216L98.1188 90.2219Z" fill="white" stroke="#263238" stroke-linecap="round" stroke-linejoin="round"/>
<path d="M104.673 60.272L104.053 65.0293L105.912 64.2019L104.673 60.272Z" fill="white" stroke="#263238" stroke-linecap="round" stroke-linejoin="round"/>
<path d="M121.792 57.5063C121.792 57.5063 116.524 59.752 114.943 60.8039" stroke="#263238" stroke-linecap="round" stroke-linejoin="round"/>
<path d="M130.746 54.4747C130.746 54.4747 131.142 55.9285 133.377 57.9023C135.613 59.882 139.961 59.4861 141.672 58.5642C143.382 57.6423 143.878 54.717 143.878 54.717C143.878 54.717 141.276 51.839 139.961 51.709C138.645 51.579 131.272 50.7871 130.741 54.4806L130.746 54.4747Z" fill="#666666" stroke="#263238" stroke-linecap="round" stroke-linejoin="round"/>
<path d="M144.804 52.9973C144.55 52.5186 144.279 52.0577 144.008 51.6086C144.055 51.5436 144.102 51.4786 144.149 51.4135C144.415 51.0176 144.674 50.3557 144.415 49.8298C144.149 49.3038 142.963 47.0582 142.568 47.0582C142.362 47.0582 141.447 47.2 140.616 47.3359C140.563 47.2886 140.509 47.2355 140.462 47.1882C140.002 46.7745 139.719 46.4081 139.459 46.0594C139.719 45.1612 140.704 42.756 140.462 41.9109C140.197 40.989 137.831 40.1971 136.905 40.3271C136.303 40.4158 134.982 42.0586 134.133 43.2051C133.743 43.1283 133.348 43.0574 132.97 42.9924C132.558 41.7691 131.726 39.4998 131.248 39.4052C130.587 39.2752 129.402 40.7231 129.402 41.3849C129.402 41.5977 129.443 42.1355 129.502 42.7619L127.956 43.7606C127.956 43.7606 125.85 48.9079 124.93 49.9598C124.01 51.0176 120.187 53.3874 117.822 53.5233C115.45 53.6533 112.819 53.9192 113.344 55.503C113.869 57.0868 115.716 57.2168 119.273 57.6127C122.83 58.0087 125.856 56.2949 127.172 55.503C128.487 54.7111 131.254 55.107 133.1 55.107C134.947 55.107 137.448 54.4452 137.973 54.4452C138.498 54.4452 139.949 55.633 141.53 56.0289C143.111 56.4249 146.007 55.503 146.007 55.503C146.007 55.503 146.137 55.503 144.822 52.9973H144.804Z" fill="white" stroke="#263238" stroke-linecap="round" stroke-linejoin="round"/>
<path d="M136.504 42.3128L136.374 46.0063C136.374 46.0063 135.454 49.0379 135.979 50.0957C136.504 51.1535 138.61 50.2257 138.875 49.6998C139.141 49.1738 141.111 42.5787 140.981 41.7868C140.852 40.9949 139.005 39.9371 137.955 39.9371C136.905 39.9371 136.244 40.729 136.244 40.729" fill="white"/>
<path d="M136.504 42.3128L136.374 46.0063C136.374 46.0063 135.454 49.0379 135.979 50.0957C136.504 51.1535 138.61 50.2257 138.875 49.6998C139.141 49.1738 141.111 42.5787 140.981 41.7868C140.852 40.9949 139.005 39.9371 137.955 39.9371C136.905 39.9371 136.244 40.729 136.244 40.729" stroke="#263238" stroke-linecap="round" stroke-linejoin="round"/>
<path d="M145.724 49.8357C145.724 49.8357 148.096 51.4195 148.225 51.9454C148.355 52.4714 147.96 55.5089 147.96 57.0927C147.96 58.6764 147.435 60.2602 146.509 59.3383C145.589 58.4164 145.589 55.3789 145.453 54.8529C145.323 54.327 144.662 54.061 144.662 54.061" fill="white"/>
<path d="M145.724 49.8357C145.724 49.8357 148.096 51.4195 148.225 51.9454C148.355 52.4714 147.96 55.5089 147.96 57.0927C147.96 58.6764 147.435 60.2602 146.509 59.3383C145.589 58.4164 145.589 55.3789 145.453 54.8529C145.323 54.327 144.662 54.061 144.662 54.061" stroke="#263238" stroke-linecap="round" stroke-linejoin="round"/>
<path d="M130.581 38.0933C130.581 38.0933 127.29 37.4314 127.024 38.7552C126.759 40.073 126.629 44.4284 127.685 44.6943C128.741 44.9603 130.452 45.0903 130.711 44.6943C130.977 44.2984 131.897 39.683 131.767 38.8911C131.637 38.0992 130.581 38.0992 130.581 38.0992V38.0933Z" fill="white" stroke="#263238" stroke-linecap="round" stroke-linejoin="round"/>
<path d="M139.796 47.46C139.796 47.46 142.958 45.0844 143.878 44.8243C144.798 44.5584 147.169 46.9341 147.169 46.9341C147.169 46.9341 146.774 50.1016 146.114 52.0813C145.453 54.061 144.662 54.717 143.878 54.717C143.093 54.717 142.297 54.0551 142.297 53.0032C142.297 51.9513 142.692 48.5178 142.692 48.5178" fill="white"/>
<path d="M139.796 47.46C139.796 47.46 142.958 45.0844 143.878 44.8243C144.798 44.5584 147.169 46.9341 147.169 46.9341C147.169 46.9341 146.774 50.1016 146.114 52.0813C145.453 54.061 144.662 54.717 143.878 54.717C143.093 54.717 142.297 54.0551 142.297 53.0032C142.297 51.9513 142.692 48.5178 142.692 48.5178" stroke="#263238" stroke-linecap="round" stroke-linejoin="round"/>
<path d="M132.953 44.1625C132.953 44.1625 131.767 45.7462 130.711 46.0122C129.655 46.2781 128.21 46.2781 128.21 46.2781" fill="white"/>
<path d="M132.953 44.1625C132.953 44.1625 131.767 45.7462 130.711 46.0122C129.655 46.2781 128.21 46.2781 128.21 46.2781" stroke="#263238" stroke-linecap="round" stroke-linejoin="round"/>
<path d="M134.268 44.9543C134.268 44.9543 134.398 46.2722 135.849 46.5381L134.268 44.9543Z" fill="white"/>
<path d="M134.268 44.9543C134.268 44.9543 134.398 46.2722 135.849 46.5381" stroke="#263238" stroke-linecap="round" stroke-linejoin="round"/>
<path d="M140.327 49.3038C140.327 49.3038 140.061 51.0176 142.037 50.6217L140.327 49.3038Z" fill="white"/>
<path d="M140.327 49.3038C140.327 49.3038 140.061 51.0176 142.037 50.6217" stroke="#263238" stroke-linecap="round" stroke-linejoin="round"/>
<path d="M79.2537 64.6333C79.2537 64.6333 81.4954 61.2058 83.0704 57.6423C84.6514 54.0788 85.9668 51.839 87.6776 49.8593C89.3883 47.8796 93.8716 44.3634 94.2609 44.3161C95.4466 44.1861 95.4466 45.634 95.4466 45.634C95.4466 45.634 97.5526 44.4461 98.2133 44.9721C98.874 45.498 98.5967 46.8041 97.5526 47.6078C95.8418 48.9256 93.6002 52.3591 93.4704 52.755C93.3406 53.151 93.0752 53.5469 93.0752 53.5469C93.0752 53.5469 95.9716 55.2607 95.9716 56.0526C95.9716 56.8445 95.4466 58.0323 95.4466 58.0323C95.4466 58.0323 95.7121 59.7461 94.7859 61.1999C93.8657 62.6536 93.205 64.1015 92.4145 64.1015C91.624 64.1015 91.2288 63.9715 91.2288 63.1796C91.2288 62.3877 92.149 60.5439 92.149 60.5439C92.149 60.5439 90.8336 61.7317 90.0431 62.9195C89.2526 64.1074 88.4621 65.5552 87.1466 66.0871C85.8312 66.613 83.4597 67.2749 83.4597 67.2749L81.0529 71.2107C81.0529 71.2107 79.1121 71.6303 77.661 70.7084C76.2098 69.7865 75.8146 67.8068 75.8146 67.8068L79.236 64.6392L79.2537 64.6333Z" fill="white" stroke="#263238" stroke-linecap="round" stroke-linejoin="round"/>
<path d="M78.3335 64.7633C78.3335 64.7633 78.2037 65.9512 79.5192 67.009C80.8347 68.0668 83.4716 68.1968 83.4716 68.1968C83.4716 68.1968 83.9966 67.8009 83.9966 68.4628C83.9966 69.1246 82.0204 72.5522 81.2299 73.87C80.4395 75.1879 76.0919 75.4538 74.5109 73.3441C72.93 71.2344 73.0598 68.4628 73.3252 68.0668C73.5907 67.6709 77.1419 64.5033 77.1419 64.5033C77.1419 64.5033 78.1978 63.8414 78.3276 64.7692L78.3335 64.7633Z" fill="#666666" stroke="#263238" stroke-linecap="round" stroke-linejoin="round"/>
<path d="M95.4526 45.634C95.4526 45.634 92.1609 47.8796 91.105 49.3275C90.0491 50.7753 89.3943 51.5731 89.3943 51.5731" stroke="#263238" stroke-linecap="round" stroke-linejoin="round"/>
<path d="M92.4264 56.0585L95.4526 58.0382" stroke="#263238" stroke-linecap="round" stroke-linejoin="round"/>
<path d="M93.0812 53.5528C93.0812 53.5528 92.1609 52.8909 91.5002 53.2869" stroke="#263238" stroke-linecap="round" stroke-linejoin="round"/>
<path d="M132.558 246.608C131.909 247.181 131.201 247.813 130.44 248.505C126.31 252.228 120.116 252.228 120.116 252.228C120.116 252.228 118.052 242.92 115.574 242.3C113.097 241.679 109.793 242.3 109.793 242.3C109.793 242.3 105.664 247.884 103.806 249.746C101.947 251.607 97.1986 255.123 94.5145 256.985C91.8305 258.846 86.4623 261.122 86.2559 264.017C86.0494 266.913 86.7514 268.225 91.7125 269.679C96.3078 271.026 107.734 270.016 112.896 269.395C118.058 268.775 128.175 262.983 129.826 260.915C131.478 258.847 132.51 258.64 132.51 252.848C132.51 250.65 132.54 248.487 132.563 246.608H132.558Z" fill="white" stroke="#263238" stroke-linecap="round" stroke-linejoin="round"/>
<path d="M132.121 255.513C128.676 258.238 123.963 261.689 116.353 264.591C108.743 267.498 98.9507 267.675 91.8836 266.405C88.2557 265.755 86.8281 264.673 86.2913 263.769C86.2795 263.852 86.2559 263.929 86.25 264.012C86.0435 266.907 86.7455 268.219 91.7066 269.673C96.302 271.02 107.728 270.01 112.89 269.389C118.052 268.769 128.169 262.977 129.82 260.909C131.195 259.183 132.139 258.746 132.416 255.301C132.316 255.372 132.227 255.431 132.127 255.508L132.121 255.513Z" stroke="#263238" stroke-linecap="round" stroke-linejoin="round"/>
<path d="M97.8122 255.129C97.8122 255.129 95.3936 255.939 96.6029 256.973C97.1515 257.446 102.649 260.684 104.059 259.774C106.218 258.386 97.8122 255.129 97.8122 255.129Z" stroke="#263238" stroke-linecap="round" stroke-linejoin="round"/>
<path d="M104.755 258.061C104.755 258.061 116.176 250.071 117.621 247.713" stroke="#263238" stroke-linecap="round" stroke-linejoin="round"/>
<path d="M106.749 258.261C106.513 258.261 106.271 258.173 106.094 257.99C102.537 254.426 99.5819 254.787 99.458 254.804C98.9507 254.881 98.4846 254.527 98.408 254.018C98.3313 253.516 98.6734 253.043 99.1748 252.966C99.3341 252.943 103.133 252.399 107.41 256.678C107.776 257.044 107.776 257.629 107.41 257.996C107.227 258.179 106.991 258.267 106.755 258.267L106.749 258.261Z" fill="white" stroke="#263238" stroke-linecap="round" stroke-linejoin="round"/>
<path d="M109.828 256.264C109.575 256.264 109.327 256.164 109.144 255.963C105.699 252.186 101.646 252.624 101.605 252.63C101.092 252.695 100.632 252.328 100.573 251.814C100.514 251.306 100.874 250.839 101.387 250.78C101.593 250.756 106.437 250.23 110.519 254.71C110.867 255.088 110.837 255.679 110.46 256.028C110.283 256.193 110.059 256.27 109.834 256.27L109.828 256.264Z" fill="white" stroke="#263238" stroke-linecap="round" stroke-linejoin="round"/>
<path d="M112.548 254.267C112.277 254.267 112.005 254.148 111.822 253.918C109.215 250.644 104.938 250.396 104.195 250.591C103.753 250.798 103.227 250.632 102.986 250.195C102.738 249.746 102.903 249.178 103.351 248.93C104.502 248.292 110.011 248.652 113.274 252.754C113.592 253.156 113.527 253.741 113.126 254.06C112.955 254.196 112.749 254.261 112.548 254.261V254.267Z" fill="white" stroke="#263238" stroke-linecap="round" stroke-linejoin="round"/>
<path d="M114.725 252.092C114.471 252.092 114.223 251.991 114.035 251.785C110.725 248.138 106.431 248.097 106.383 248.097C105.87 248.097 105.451 247.677 105.451 247.163C105.451 246.649 105.864 246.23 106.383 246.23C106.59 246.23 111.551 246.277 115.409 250.532C115.751 250.91 115.728 251.501 115.344 251.85C115.167 252.009 114.943 252.092 114.719 252.092H114.725Z" fill="white" stroke="#263238" stroke-linecap="round" stroke-linejoin="round"/>
<path d="M117.261 259.042H117.25C116.907 259.036 116.636 258.752 116.642 258.409L116.677 256.766C116.683 256.429 116.96 256.158 117.297 256.158H117.309C117.651 256.164 117.922 256.447 117.916 256.79L117.881 258.433C117.875 258.77 117.598 259.042 117.261 259.042Z" fill="white" stroke="#263238" stroke-linecap="round" stroke-linejoin="round"/>
<path d="M117.297 257.712H117.273C116.76 257.7 116.353 257.275 116.365 256.76L116.506 250.414C116.518 249.899 116.955 249.486 117.456 249.503C117.969 249.515 118.376 249.941 118.364 250.455L118.223 256.802C118.211 257.31 117.798 257.712 117.297 257.712Z" fill="white" stroke="#263238" stroke-linecap="round" stroke-linejoin="round"/>
<path d="M112.483 263.627C112.819 264.224 112.996 264.797 113.026 265.223" stroke="#263238" stroke-linecap="round" stroke-linejoin="round"/>
<path d="M91.2584 259.467C91.2584 259.467 89.7482 260.478 92.3674 261.589C94.9866 262.7 101.835 261.99 106.372 261.086C108.006 260.761 109.315 261.009 110.324 261.535" stroke="#263238" stroke-linecap="round" stroke-linejoin="round"/>
<path d="M129.443 251.601C129.673 251.146 129.938 250.697 130.251 250.278" stroke="#263238" stroke-linecap="round" stroke-linejoin="round"/>
<path d="M128.033 257.954C128.033 257.954 127.98 255.567 128.835 253.061" stroke="#263238" stroke-linecap="round" stroke-linejoin="round"/>
<path d="M130.404 86.8002C130.941 83.414 128.635 80.2347 125.254 79.7028C121.874 79.165 118.701 81.4757 118.17 84.8619C117.633 88.2481 119.939 91.4275 123.32 91.9593C126.7 92.4971 129.873 90.1864 130.404 86.8002Z" fill="#666666" stroke="#263238" stroke-linecap="round" stroke-linejoin="round"/>
<path d="M155.505 93.2122L128.045 90.6829L129.384 82.2026L156.284 88.2895C157.027 88.4549 157.511 89.1759 157.393 89.9264L157.068 91.9948C156.95 92.7512 156.266 93.2831 155.505 93.2063V93.2122Z" fill="#263238" stroke="#263238" stroke-linecap="round" stroke-linejoin="round"/>
<path d="M130.835 82.5276L129.384 82.2026L128.045 90.6829L129.525 90.8188L130.835 82.5276Z" fill="white" stroke="#263238" stroke-linecap="round" stroke-linejoin="round"/>
<path d="M122.476 91.7584C122.747 91.8411 123.025 91.912 123.314 91.9593C123.373 91.9711 123.426 91.9711 123.485 91.977L125.42 79.7382C125.361 79.7264 125.308 79.7146 125.249 79.7028C124.959 79.6555 124.67 79.6378 124.387 79.6319L122.47 91.7584H122.476Z" fill="white" stroke="#263238" stroke-linecap="round" stroke-linejoin="round"/>
</g>
<defs>
<linearGradient id="paint0_linear_39_22335" x1="32.5023" y1="173.122" x2="32.5023" y2="236.715" gradientUnits="userSpaceOnUse">
<stop stop-color="#037EC8"/>
<stop offset="1" stop-color="#92E3A9"/>
</linearGradient>
<linearGradient id="paint1_linear_39_22335" x1="184.502" y1="166" x2="184.502" y2="229.593" gradientUnits="userSpaceOnUse">
<stop stop-color="#037EC8"/>
<stop offset="1" stop-color="#92E3A9"/>
</linearGradient>
<clipPath id="clip0_39_22335">
<rect width="239" height="273" fill="white"/>
</clipPath>
</defs>
</svg>
