<svg width="266" height="239" viewBox="0 0 266 239" fill="none" xmlns="http://www.w3.org/2000/svg">
<path d="M145.409 150.724H130.465V210.006H145.409V150.724Z" fill="#E0E0E0"/>
<path d="M142.569 210.013H145.41V201.939H139.592L142.569 210.013Z" fill="#FAFAFA"/>
<path d="M79.9222 150.724H64.9775V210.006H79.9222V150.724Z" fill="#E0E0E0"/>
<path d="M145.409 150.724H77.4482V205.052H145.409V150.724Z" fill="#FAFAFA"/>
<path d="M142.942 153.395V167.769H79.9084V153.395H142.942ZM143.207 153.13H79.6501V168.027H143.207V153.13Z" fill="#E0E0E0"/>
<path d="M80.289 210.013H77.4482V201.939H83.2589L80.289 210.013Z" fill="#FAFAFA"/>
<path d="M109.927 160.585C109.927 161.414 110.6 162.087 111.429 162.087C112.258 162.087 112.931 161.414 112.931 160.585C112.931 159.756 112.258 159.083 111.429 159.083C110.6 159.083 109.927 159.756 109.927 160.585Z" fill="#E6E6E6"/>
<path d="M142.942 170.705V185.078H79.9084V170.705H142.942ZM143.207 170.439H79.6501V185.337H143.207V170.439Z" fill="#E0E0E0"/>
<path d="M109.927 177.895C109.927 178.724 110.6 179.397 111.429 179.397C112.258 179.397 112.931 178.724 112.931 177.895C112.931 177.066 112.258 176.393 111.429 176.393C110.6 176.393 109.927 177.066 109.927 177.895Z" fill="#E6E6E6"/>
<path d="M142.942 188.014V202.388H79.9084V188.014H142.942ZM143.207 187.749H79.6501V202.646H143.207V187.749Z" fill="#E0E0E0"/>
<path d="M109.927 195.198C109.927 196.027 110.6 196.7 111.429 196.7C112.258 196.7 112.931 196.027 112.931 195.198C112.931 194.369 112.258 193.696 111.429 193.696C110.6 193.696 109.927 194.369 109.927 195.198Z" fill="#E6E6E6"/>
<path d="M70.795 116.295H55.8503V210.013H70.795V116.295Z" fill="#E0E0E0"/>
<path d="M67.9542 210.013H70.795V201.939H64.9775L67.9542 210.013Z" fill="#FAFAFA"/>
<path d="M14.9446 116.295H0V210.013H14.9446V116.295Z" fill="#E0E0E0"/>
<path d="M70.7951 116.295H12.4641V205.059H70.7951V116.295Z" fill="#FAFAFA"/>
<path d="M68.2805 118.81V138.906H14.9786V118.81H68.2873M68.5999 118.497H14.666V139.211H68.5931V118.497H68.5999Z" fill="#E0E0E0"/>
<path d="M68.2805 141.352V194.661H42.8903V141.352H68.2805ZM68.5932 141.04H42.5845V194.967H68.5932V141.04Z" fill="#E0E0E0"/>
<path d="M40.3687 141.352V194.661H14.9784V141.352H40.3687ZM40.6813 141.04H14.6726V194.967H40.6813V141.04Z" fill="#E0E0E0"/>
<path d="M15.3049 210.013H12.4641V201.939H18.2816L15.3049 210.013Z" fill="#FAFAFA"/>
<path d="M40.124 128.861C40.124 129.69 40.7968 130.363 41.626 130.363C42.4551 130.363 43.1279 129.69 43.1279 128.861C43.1279 128.032 42.4551 127.359 41.626 127.359C40.7968 127.359 40.124 128.032 40.124 128.861Z" fill="#E6E6E6"/>
<path d="M45.5066 166.729C45.5066 167.558 46.1794 168.231 47.0085 168.231C47.8377 168.231 48.5105 167.558 48.5105 166.729C48.5105 165.9 47.8377 165.227 47.0085 165.227C46.1794 165.227 45.5066 165.9 45.5066 166.729Z" fill="#E6E6E6"/>
<path d="M34.7485 166.729C34.7485 167.558 35.4213 168.231 36.2505 168.231C37.0796 168.231 37.7524 167.558 37.7524 166.729C37.7524 165.9 37.0796 165.227 36.2505 165.227C35.4213 165.227 34.7485 165.9 34.7485 166.729Z" fill="#E6E6E6"/>
<path d="M33.0495 90.1707H26.7428C26.7428 90.1707 27.8369 95.995 27.8369 99.427C27.8369 102.859 23.0389 116.302 29.8961 116.302C36.7534 116.302 31.9554 102.859 31.9554 99.427C31.9554 95.995 33.0495 90.1707 33.0495 90.1707Z" fill="#E0E0E0"/>
<path d="M9.07959 103.953V108.051C9.07959 112.591 12.7903 116.302 17.3301 116.302H21.4281C25.9679 116.302 29.6786 112.591 29.6786 108.051V103.953H9.07959Z" fill="#F5F5F5"/>
<path d="M96.6611 142.086C96.6611 146.837 101.982 150.724 108.486 150.724H114.358C120.862 150.724 126.183 146.837 126.183 142.086H96.6611Z" fill="#E0E0E0"/>
<path d="M252.251 135.134C248.69 138.042 243.776 143.364 239.27 150.853C236.273 155.841 234.466 161.068 233.67 167.972C233.691 160.157 233.711 151.764 233.738 143.84C234.642 141.801 236.708 137.098 238.19 133.387C243.137 120.998 244.979 117.953 249.424 107.263C255.357 93.0115 261.433 76.096 259.693 77.4484C256.145 80.2008 242.553 105.652 241.085 109.295C236.029 121.827 234.622 130.961 233.752 139.775C233.779 132.334 233.806 125.497 233.834 120.223C233.922 103.022 234.214 97.4697 234.357 95.7571C234.907 94.8872 235.553 93.8746 235.934 93.3241C239.128 88.7095 240.358 84.7746 243.369 77.8902C247.63 68.131 251.306 50.8077 250.233 51.6844C245.761 55.3203 242.24 63.1426 237.605 73.1125C232.97 83.0756 234.296 88.8115 233.378 97.3202C233.188 98.9921 233.038 105.292 232.93 114.032C231.727 104.721 229.477 98.5911 225.366 93.0183C220.309 86.161 215.416 81.5329 211.828 79.1134C208.239 76.694 218.026 93.5348 222.708 100.881C226.874 107.426 230.714 113.203 232.882 118.891C232.767 130.73 232.712 145.722 232.712 159.681C231.638 153.327 229.885 146.49 227.547 141.196C224.734 134.835 220.411 125.075 216.972 121.759C216.143 120.964 220.574 139.945 223.415 144.995C226.256 150.044 228.342 154.802 230.13 157.663C230.544 158.329 231.931 160.905 232.719 162.386C232.726 179.424 232.814 194.457 232.964 199.574H233.698C233.65 198.256 233.636 189.584 233.657 178.112C235.431 171.887 239.481 164.778 242.832 158.295C246.481 151.22 255.819 132.225 252.258 135.134H252.251Z" fill="#E0E0E0"/>
<path d="M243.98 210.013H222.681L221.07 189.136H245.591L243.98 210.013Z" fill="#F0F0F0"/>
<path d="M247.174 191.569H219.487L218.692 184.521H247.969L247.174 191.569Z" fill="#F5F5F5"/>
<path d="M48.13 0.203918H10.0378V42.0339H48.13V0.203918Z" fill="#E0E0E0"/>
<path d="M52.2552 0.203903H12.9058V42.0339H52.2552V0.203903Z" fill="#F5F5F5"/>
<path d="M48.9592 38.7446V3.50678L16.202 3.50678V38.7446H48.9592Z" fill="white"/>
<path d="M41.0212 30.1951V12.0427L24.1465 12.0427V30.1951H41.0212Z" fill="#F5F5F5"/>
<path d="M242.356 5.08351H206.969V43.9436H242.356V5.08351Z" fill="#E0E0E0"/>
<path d="M246.189 5.08353H209.639V43.9436H246.189V5.08353Z" fill="#F5F5F5"/>
<path d="M243.13 40.8786V8.14858L212.704 8.14858V40.8786H243.13Z" fill="white"/>
<path d="M227.914 34.0077C233.158 34.0077 237.408 29.7571 237.408 24.5136C237.408 19.2701 233.158 15.0194 227.914 15.0194C222.671 15.0194 218.42 19.2701 218.42 24.5136C218.42 29.7571 222.671 34.0077 227.914 34.0077Z" fill="#F5F5F5"/>
<path d="M87.7038 25.1456H59.4456V56.1766H87.7038V25.1456Z" fill="#E0E0E0"/>
<path d="M90.762 25.1456H61.5728V56.1766H90.762V25.1456Z" fill="#F5F5F5"/>
<path d="M88.3154 53.73V27.5922H64.0194V53.73H88.3154Z" fill="white"/>
<path d="M76.1708 34.0553L69.5242 45.5679H82.8173L76.1708 34.0553Z" fill="#F5F5F5"/>
<path opacity="0.1" d="M133.584 238.028C206.358 238.028 265.354 234.583 265.354 230.334C265.354 226.086 206.358 222.641 133.584 222.641C60.8097 222.641 1.81445 226.086 1.81445 230.334C1.81445 234.583 60.8097 238.028 133.584 238.028Z" fill="#FAFAFA"/>
<path d="M201.035 59.9689L194.294 57.2368C194.294 57.2368 185.398 73.4591 182.849 74.2814C179.383 75.396 172.213 78.495 167.952 79.0727C167.374 79.7455 166.43 81.8591 166.518 82.6339C172.234 84.5368 184.793 82.0086 187.484 80.0106C193.614 75.4572 201.035 59.9689 201.035 59.9689Z" fill="#E58A7B"/>
<path d="M203.108 56.2854C204.365 60.9339 197.556 70.2718 197.556 70.2718L188.612 65.2562C188.612 65.2562 190.277 61.4164 192.323 57.5087C195.619 51.1951 201.681 50.9844 203.115 56.2854H203.108Z" fill="#43B943"/>
<path opacity="0.2" d="M192.173 67.2543L195.687 69.2251L196.298 58.4397C194.26 60.0096 192.812 64.7397 192.173 67.2543Z" fill="#F382C5"/>
<path d="M197.236 52.7854C197.236 52.7854 190.291 68.2397 194.341 97.0144H221.709C222.144 92.8144 220.703 72.3174 225.916 52.5271C225.916 52.5271 221.281 51.5824 216.823 51.3718C213.336 51.2019 208.28 51.0931 205.188 51.3718C201.11 51.7388 197.236 52.7921 197.236 52.7921V52.7854Z" fill="white"/>
<g style="mix-blend-mode:multiply">
<path d="M190.889 232.393C190.848 233.12 201.226 233.711 214.064 233.711C226.902 233.711 237.354 233.12 237.395 232.393C237.436 231.666 227.065 231.074 214.22 231.074C201.375 231.074 190.93 231.666 190.889 232.393Z" fill="#E8ECF1"/>
</g>
<path d="M209.81 214.067L204.94 215.943L209.115 226.781L213.986 224.905L209.81 214.067Z" fill="#E58A7B"/>
<path d="M230.802 227.167H225.685L223.809 215.321H228.927L230.802 227.167Z" fill="#E58A7B"/>
<path d="M225.359 226.575H231.108C231.319 226.575 231.489 226.718 231.523 226.922L232.263 231.468C232.338 231.937 231.944 232.386 231.461 232.379C229.457 232.345 228.492 232.23 225.963 232.23C224.407 232.23 221.193 232.393 219.045 232.393C216.897 232.393 216.741 230.272 217.631 230.075C221.627 229.212 223.177 228.023 224.509 226.888C224.747 226.684 225.053 226.575 225.359 226.575Z" fill="#263238"/>
<path d="M208.321 224.781L213.771 223.198C213.975 223.137 214.186 223.225 214.274 223.408L216.293 227.486C216.503 227.907 216.252 228.437 215.783 228.567C213.812 229.103 212.48 229.443 210.006 230.164C208.3 230.66 206.561 231.469 204.875 232.005C203.706 232.379 200.961 232.393 199.54 232.393C197.44 232.393 196.971 230.177 197.868 230.075C200.145 229.817 200.451 229.939 201.708 229.307C203.788 228.268 205.399 227.398 207.199 225.515C207.512 225.189 207.879 224.91 208.314 224.781H208.321Z" fill="#263238"/>
<path d="M168.808 79.0251L163.181 76.6533L160.864 82.8921C160.864 82.8921 164.112 83.4834 167.823 82.8921L168.808 79.0251Z" fill="#E58A7B"/>
<path d="M158.995 76.5038L158.845 80.6494L160.864 82.8921L163.181 76.6533L158.995 76.5038Z" fill="#E58A7B"/>
<path d="M209.822 214.03L204.953 215.91L207.11 221.495L211.979 219.615L209.822 214.03Z" fill="#CF6F64"/>
<path d="M228.926 215.321H223.809L224.781 221.431H229.898L228.926 215.321Z" fill="#CF6F64"/>
<path opacity="0.2" d="M193.471 89.2261C193.567 90.4562 193.689 91.7134 193.832 93.0047L214.179 86.3989C217.36 85.4474 220.119 83.4494 222.008 80.7242C222.083 78.9096 222.192 76.9999 222.341 75.0086C222.409 74.0368 222.498 73.0446 222.586 72.0387C222.681 70.9921 222.797 69.9251 222.919 68.8446L193.465 89.2261H193.471Z" fill="black"/>
<path d="M200.118 66.9416L199.425 66.8601C199.826 63.4688 202.36 60.7912 205.031 60.8523L205.011 61.5523C202.7 61.4844 200.478 63.9038 200.118 66.9416Z" fill="white"/>
<path d="M203.74 73.2145C203.7 73.2145 203.666 73.2145 203.625 73.2145L203.645 72.5145C205.983 72.6028 208.178 70.163 208.538 67.1251L209.232 67.2067C208.831 70.5504 206.384 73.2145 203.733 73.2145H203.74Z" fill="white"/>
<path d="M216.442 38.2621C215.491 42.0068 214.356 48.864 216.83 51.365C216.83 51.365 215.104 55.164 208.144 55.164C201.79 55.164 205.195 51.365 205.195 51.365C209.429 50.366 209.504 47.2738 208.946 44.365L216.442 38.2689V38.2621Z" fill="#E58A7B"/>
<path d="M213.384 40.7563L208.946 44.365C209.082 45.0514 209.177 45.7514 209.184 46.431C210.482 47.7223 213.085 44.4533 213.35 42.7815C213.486 41.9456 213.493 41.1504 213.384 40.7631V40.7563Z" fill="#CF6F64"/>
<path d="M201.314 38.2213C201.966 39.3835 203.115 40.1106 204.195 40.3553C205.826 40.7155 206.649 39.2204 206.2 37.7048C205.792 36.3456 204.46 34.5174 202.816 34.8301C201.198 35.1359 200.566 36.8893 201.314 38.2213Z" fill="#CF6F64"/>
<path d="M204.012 26.2398C201.471 27.4019 200.573 37.5009 203.768 38.9961C206.962 40.4912 208.824 24.0379 204.012 26.2398Z" fill="#263238"/>
<path d="M217.217 32.635C216.605 37.7048 216.51 40.6883 213.798 43.2844C209.721 47.199 203.597 44.8747 202.687 39.8184C201.864 35.265 202.999 27.7418 208.076 25.7233C213.078 23.7389 217.828 27.5651 217.217 32.635Z" fill="#E58A7B"/>
<path d="M208.865 28.8631C212.623 27.898 215.389 27.2456 214.403 30.3854C213.085 34.565 211.508 38.6155 213.629 38.8058C214.913 38.9213 220.629 36.4951 219.901 34.0485C219.269 31.9145 221.927 31.3369 222.416 30.2495C224.176 26.3281 219.14 26.8378 220.037 24.466C220.907 22.1553 215.98 18.2544 213.248 20.1641C208.824 23.2495 201.233 23.2087 205.222 18.1456C208.083 14.5233 202.979 15.2641 202.979 15.2641C202.979 15.2641 206.065 17.0922 200.872 19.9194C195.374 22.9165 200.41 31.0242 208.865 28.8631Z" fill="#263238"/>
<path d="M219.181 38.2213C218.393 39.3835 217.163 40.1106 216.048 40.3553C214.376 40.7155 213.731 39.2204 214.356 37.7048C214.92 36.3456 216.469 34.5174 218.073 34.8301C219.65 35.1359 220.078 36.8893 219.181 38.2213Z" fill="#E58A7B"/>
<path d="M194.341 97.0144C194.341 97.0144 189.747 138.131 189.387 153.735C189.013 169.964 204.957 220.602 204.957 220.602L213.119 217.176C213.119 217.176 203.618 170.915 204.936 154.972C206.377 137.594 212.33 97.0144 212.33 97.0144H194.341Z" fill="#43B943"/>
<path opacity="0.2" d="M205.759 108.303C202.102 115.901 204.563 130.92 206.547 139.83C207.301 133.543 208.199 126.72 209.048 120.407C208.967 110.702 208.212 103.206 205.759 108.303Z" fill="white"/>
<path d="M212.752 214.505C212.793 214.492 213.717 217.108 213.717 217.108L204.311 221.057L202.83 218.298L212.752 214.499V214.505Z" fill="white"/>
<path d="M204.053 97.0144C204.053 97.0144 207.567 136.119 209.898 150.765C212.446 166.81 222.47 220.248 222.47 220.248H231.842C231.842 220.248 226.229 168.108 225.168 152.219C224.02 134.977 221.723 97.0144 221.723 97.0144H204.067H204.053Z" fill="#43B943"/>
<path d="M231.978 217.802C232.019 217.802 232.291 220.418 232.291 220.418H221.988L221.254 217.414L231.978 217.802Z" fill="white"/>
<path opacity="0.2" d="M228.39 214.709C228.342 214.709 228.308 214.675 228.301 214.635C228.247 214.159 223.184 167.082 222.233 152.817C221.199 137.329 219.12 102.995 219.099 102.648C219.099 102.601 219.133 102.56 219.181 102.553C219.229 102.553 219.263 102.587 219.269 102.635C219.29 102.981 221.369 137.315 222.402 152.804C223.354 167.069 228.417 214.145 228.471 214.614C228.471 214.662 228.444 214.703 228.397 214.709H228.39Z" fill="#6690CC"/>
<path d="M209.442 34.0485C209.415 34.4631 209.177 34.7961 208.912 34.7961C208.647 34.7961 208.443 34.4631 208.47 34.0485C208.497 33.6339 208.735 33.3009 209 33.3009C209.265 33.3009 209.469 33.6339 209.442 34.0485Z" fill="#263238"/>
<path d="M204.78 34.0485C204.753 34.4631 204.515 34.7961 204.25 34.7961C203.985 34.7961 203.781 34.4631 203.808 34.0485C203.836 33.6339 204.073 33.3009 204.338 33.3009C204.603 33.3009 204.807 33.6339 204.78 34.0485Z" fill="#263238"/>
<path d="M206.248 34.2524C206.248 34.2524 205.167 36.631 204.066 37.7796C204.76 38.4592 206.017 38.1466 206.017 38.1466L206.248 34.2456V34.2524Z" fill="#DF5753"/>
<path d="M206.37 39.8863C206.302 39.8863 206.255 39.832 206.255 39.764C206.255 39.6961 206.316 39.6417 206.384 39.6417C208.199 39.6417 209.116 38.3776 209.123 38.364C209.164 38.3097 209.238 38.2893 209.293 38.33C209.347 38.364 209.361 38.4388 209.32 38.4999C209.279 38.5543 208.314 39.8863 206.37 39.8863Z" fill="#263238"/>
<path d="M210.271 32.7912C210.203 32.8184 210.122 32.8116 210.061 32.7709C209.17 32.2068 208.334 32.5874 208.328 32.5874C208.212 32.6485 208.063 32.5942 208.008 32.4718C207.961 32.3495 208.015 32.2068 208.144 32.1456C208.185 32.1252 209.232 31.6495 210.332 32.3495C210.441 32.4175 210.468 32.567 210.394 32.6825C210.36 32.7301 210.319 32.7641 210.271 32.7845V32.7912Z" fill="#263238"/>
<path d="M202.979 31.4388C202.979 31.4388 202.911 31.4116 202.884 31.3844C202.789 31.2961 202.789 31.1398 202.884 31.0446C203.835 30.0456 204.929 30.1951 204.977 30.2019C205.106 30.2155 205.195 30.3446 205.167 30.4805C205.14 30.6097 205.011 30.7048 204.882 30.6844C204.848 30.6844 203.985 30.5689 203.23 31.3708C203.163 31.4456 203.067 31.466 202.979 31.4456V31.4388Z" fill="#263238"/>
<path d="M228.546 59.2077L221.478 57.3252C221.478 57.3252 214.546 74.3902 212.1 75.5047C208.769 77.0203 200.329 82.2669 196.747 84.795C196.55 85.6377 196.706 87.894 197.155 88.5057C203.251 87.3979 214.981 82.8853 217.428 80.595C223.007 75.3688 228.553 59.2077 228.553 59.2077H228.546Z" fill="#E58A7B"/>
<path d="M223.612 227.466C223.225 227.466 222.864 227.398 222.64 227.207C222.463 227.051 222.396 226.84 222.429 226.569C222.457 226.365 222.565 226.269 222.654 226.229C223.231 225.936 224.828 226.949 225.005 227.071C225.046 227.099 225.066 227.146 225.053 227.194C225.039 227.241 225.005 227.282 224.958 227.289C224.597 227.377 224.081 227.472 223.605 227.472L223.612 227.466ZM222.912 226.405C222.851 226.405 222.796 226.412 222.756 226.433C222.722 226.453 222.681 226.48 222.674 226.575C222.654 226.766 222.695 226.915 222.81 227.017C223.075 227.255 223.741 227.282 224.618 227.112C224.061 226.779 223.306 226.405 222.912 226.405Z" fill="white"/>
<path d="M224.931 227.289C224.931 227.289 224.89 227.289 224.876 227.275C224.367 226.99 223.408 225.868 223.544 225.298C223.571 225.196 223.653 225.012 223.945 224.978C224.135 224.958 224.305 225.005 224.455 225.135C225.019 225.617 225.06 227.099 225.06 227.16C225.06 227.207 225.039 227.248 224.999 227.268C224.978 227.282 224.958 227.289 224.931 227.289ZM224.02 225.216C224.02 225.216 223.986 225.216 223.966 225.216C223.809 225.236 223.789 225.311 223.782 225.338C223.701 225.678 224.299 226.521 224.801 226.922C224.767 226.487 224.652 225.631 224.292 225.318C224.21 225.25 224.122 225.209 224.02 225.209V225.216Z" fill="white"/>
<path d="M205.568 226.623C205.066 226.745 204.59 226.779 204.284 226.616C204.087 226.514 203.978 226.337 203.951 226.1C203.937 225.957 203.985 225.835 204.087 225.739C204.637 225.25 206.853 225.773 207.104 225.835C207.152 225.848 207.186 225.889 207.193 225.943C207.193 225.998 207.166 226.045 207.118 226.066C206.703 226.256 206.119 226.494 205.568 226.63V226.623ZM204.461 225.814C204.366 225.835 204.298 225.869 204.243 225.909C204.202 225.95 204.182 225.991 204.189 226.052C204.209 226.215 204.277 226.324 204.406 226.399C204.767 226.596 205.602 226.439 206.683 225.991C205.922 225.835 204.936 225.699 204.454 225.814H204.461Z" fill="white"/>
<path d="M207.097 226.072C207.097 226.072 207.063 226.072 207.05 226.072C206.391 225.95 204.984 225.169 204.97 224.584C204.97 224.448 205.031 224.258 205.351 224.149C205.582 224.061 205.827 224.081 206.051 224.19C206.792 224.557 207.172 225.862 207.193 225.916C207.206 225.957 207.193 226.004 207.165 226.032C207.145 226.052 207.125 226.066 207.097 226.072ZM205.494 224.353C205.494 224.353 205.446 224.367 205.426 224.373C205.215 224.448 205.215 224.536 205.215 224.564C205.222 224.917 206.2 225.563 206.887 225.78C206.751 225.406 206.418 224.645 205.935 224.407C205.793 224.333 205.643 224.319 205.494 224.353Z" fill="white"/>
<path d="M197.318 84.3941L190.23 87.6562L189.407 89.6542L192.024 91.4144C192.024 91.4144 196.91 90.8843 198.303 87.7445L197.311 84.3941H197.318Z" fill="#E58A7B"/>
<path d="M197.617 88.6212C197.175 85.9911 196.305 84.7882 196.299 84.7746L197.413 83.9387C197.454 83.9931 198.487 85.3863 198.99 88.3901L197.61 88.6212H197.617Z" fill="#263238"/>
<path d="M198.827 85.3591C199.058 85.93 198.684 86.6164 198.004 86.8882C197.318 87.1669 196.577 86.929 196.346 86.3581C196.115 85.7873 196.489 85.1009 197.168 84.829C197.855 84.5504 198.596 84.7882 198.827 85.3591Z" fill="#263238"/>
<path d="M185.438 90.2931L186.383 91.2445L192.744 88.5261L190.23 87.6562L185.438 90.2931Z" fill="#E58A7B"/>
<path d="M230.388 57.2572C232.257 63.2853 224.978 71.5154 224.978 71.5154L214.886 67.397C214.886 67.397 216.306 63.0203 219.011 57.1552C222.083 50.4883 228.498 51.1747 230.381 57.2572H230.388Z" fill="#43B943"/>
<path d="M184.97 3.8147e-05H104.776L97.3135 166.994H177.507L184.97 3.8147e-05Z" fill="white"/>
<path opacity="0.56" d="M182.577 2.29031H102.383L94.9211 169.284H175.115L182.577 2.29031Z" fill="#43B943"/>
<path opacity="0.07" d="M180.185 4.58057H99.9911L92.5222 171.574H172.716L180.185 4.58057Z" fill="#43B943"/>
<path d="M171.058 77.4144H102.607L102.037 90.1979H170.487L171.058 77.4144Z" fill="white"/>
<path d="M140.251 68.097H103.022L102.771 73.8125H140L140.251 68.097Z" fill="white"/>
<path d="M169.515 111.905H101.065L100.494 124.681H168.944L169.515 111.905Z" fill="white"/>
<path opacity="0.47" d="M156.963 141.93H110.933L110.246 157.248H156.276L156.963 141.93Z" fill="white"/>
<path d="M153.884 159.62H107.854C107.854 159.62 107.813 159.613 107.793 159.593C107.78 159.579 107.773 159.552 107.773 159.532L108.459 144.213C108.459 144.173 108.5 144.139 108.541 144.139H154.571C154.571 144.139 154.611 144.145 154.632 144.166C154.645 144.179 154.652 144.207 154.652 144.227L153.966 159.545C153.966 159.586 153.925 159.62 153.884 159.62ZM107.943 159.457H153.81L154.489 144.302H108.622L107.943 159.457Z" fill="white"/>
<path d="M132.211 102.58H101.479L101.228 108.296H131.953L132.211 102.58Z" fill="white"/>
<path d="M156.086 36.1485C155.916 39.9747 154.53 43.5087 152.308 46.3766C148.95 50.7261 143.69 53.5533 137.9 53.5533C132.11 53.5533 127.108 50.7261 124.145 46.3766C122.18 43.5087 121.107 39.9747 121.277 36.1485C121.705 26.532 129.846 18.7369 139.456 18.7369C149.066 18.7369 156.521 26.532 156.086 36.1485Z" fill="white"/>
<path d="M157.724 22.3796C157.677 23.399 157.31 24.3369 156.718 25.098C155.828 26.2534 154.428 27.0077 152.892 27.0077C151.356 27.0077 150.024 26.2534 149.236 25.098C148.712 24.3369 148.427 23.399 148.475 22.3796C148.59 19.8243 150.751 17.7514 153.307 17.7514C155.862 17.7514 157.84 19.8243 157.724 22.3796Z" fill="white"/>
<path d="M109.981 83.8096C109.934 84.9377 108.975 85.8552 107.84 85.8552C106.706 85.8552 105.836 84.9377 105.883 83.8096C105.931 82.6814 106.889 81.7639 108.024 81.7639C109.159 81.7639 110.029 82.6814 109.981 83.8096Z" fill="#263238"/>
<path d="M119.142 83.8096C119.095 84.9377 118.137 85.8552 117.002 85.8552C115.867 85.8552 114.997 84.9377 115.044 83.8096C115.092 82.6814 116.05 81.7639 117.185 81.7639C118.32 81.7639 119.19 82.6814 119.142 83.8096Z" fill="#263238"/>
<path d="M128.31 83.8096C128.263 84.9377 127.305 85.8552 126.17 85.8552C125.035 85.8552 124.165 84.9377 124.212 83.8096C124.26 82.6814 125.218 81.7639 126.353 81.7639C127.488 81.7639 128.358 82.6814 128.31 83.8096Z" fill="#263238"/>
<path d="M108.439 118.293C108.391 119.421 107.433 120.339 106.298 120.339C105.163 120.339 104.293 119.421 104.34 118.293C104.388 117.165 105.346 116.247 106.481 116.247C107.616 116.247 108.486 117.165 108.439 118.293Z" fill="#263238"/>
<path d="M117.6 118.293C117.552 119.421 116.594 120.339 115.459 120.339C114.324 120.339 113.454 119.421 113.502 118.293C113.549 117.165 114.508 116.247 115.643 116.247C116.778 116.247 117.647 117.165 117.6 118.293Z" fill="#263238"/>
<path d="M126.768 118.293C126.72 119.421 125.762 120.339 124.627 120.339C123.492 120.339 122.622 119.421 122.67 118.293C122.717 117.165 123.675 116.247 124.81 116.247C125.945 116.247 126.815 117.165 126.768 118.293Z" fill="#263238"/>
<path d="M135.936 118.293C135.888 119.421 134.93 120.339 133.795 120.339C132.66 120.339 131.79 119.421 131.838 118.293C131.885 117.165 132.843 116.247 133.978 116.247C135.113 116.247 135.983 117.165 135.936 118.293Z" fill="#263238"/>
<path d="M145.104 118.293C145.056 119.421 144.098 120.339 142.963 120.339C141.828 120.339 140.958 119.421 141.006 118.293C141.053 117.165 142.011 116.247 143.146 116.247C144.281 116.247 145.151 117.165 145.104 118.293Z" fill="#263238"/>
<path d="M145.98 30.3242C145.804 34.2116 142.514 37.365 138.627 37.365C134.74 37.365 131.729 34.2116 131.899 30.3242C132.076 26.4369 135.365 23.2835 139.252 23.2835C143.14 23.2835 146.15 26.4369 145.98 30.3242Z" fill="#037EC8"/>
<path d="M152.301 46.3766C148.943 50.7261 143.683 53.5533 137.893 53.5533C132.103 53.5533 127.101 50.7261 124.138 46.3766C127.441 43.0873 132.667 40.9533 138.457 40.9533C144.247 40.9533 149.29 43.0873 152.301 46.3766Z" fill="#037EC8"/>
<path d="M52.3096 93.2766C51.664 94.6902 50.9912 96.2397 50.3931 97.7552C49.7951 99.2844 49.197 100.813 48.6737 102.37C47.6611 105.476 46.7096 108.609 46.2475 111.748L46.0912 112.747C46.0776 112.87 46.0912 113.04 46.1388 113.257C46.2407 113.692 46.5058 114.27 46.8863 114.834C47.6543 115.982 48.7349 117.145 49.9038 118.218C51.0727 119.312 52.3368 120.359 53.6553 121.358C54.9601 122.364 56.3329 123.343 57.6785 124.26L56.4145 126.645C53.1795 125.232 50.1689 123.54 47.2533 121.419C45.8194 120.325 44.4058 119.149 43.1485 117.559C42.53 116.757 41.9252 115.853 41.5242 114.657C41.3339 114.059 41.198 113.386 41.198 112.659C41.198 112.489 41.2116 112.258 41.2252 112.143L41.2592 111.803L41.3271 111.13C41.6941 107.528 42.4961 104.062 43.5494 100.705C44.0795 99.0261 44.6436 97.3679 45.2893 95.7368C45.9485 94.0989 46.6009 92.5222 47.4232 90.8708L52.3164 93.2766H52.3096Z" fill="#E58A7B"/>
<path d="M56.7272 123.852L61.532 121.419L60.2883 126.7C60.2883 126.7 56.9922 127.624 55.4563 126.02L56.7272 123.859V123.852Z" fill="#E58A7B"/>
<path d="M65.9291 122.282L64.6514 126.645L60.2883 126.693L61.532 121.412L65.9291 122.282Z" fill="#E58A7B"/>
<path d="M72.7114 67.832C72.7114 67.832 73.126 69.3611 73.7852 70.5164C73.2143 71.0465 72.7114 70.863 72.7114 70.863V67.832Z" fill="#DF5753"/>
<path d="M72.569 67.8727C72.8505 67.8727 73.0787 67.5228 73.0787 67.0912C73.0787 66.6596 72.8505 66.3096 72.569 66.3096C72.2875 66.3096 72.0593 66.6596 72.0593 67.0912C72.0593 67.5228 72.2875 67.8727 72.569 67.8727Z" fill="#263238"/>
<path d="M72.4465 66.3368L73.4795 66.0378C73.4795 66.0378 72.9494 66.8465 72.4465 66.3368Z" fill="#263238"/>
<path d="M59.4389 72.8135C60.0573 75.9805 60.6758 81.7776 58.467 83.8844C58.467 83.8844 59.3301 87.0921 65.2088 87.0921C71.6719 87.0921 68.301 83.8844 68.301 83.8844C64.7738 83.0417 64.8622 80.4252 65.4806 77.965L59.4457 72.8135H59.4389Z" fill="#E58A7B"/>
<path d="M57.7195 65.6165C58.0457 70.897 58.0661 73.1398 60.7369 75.8514C64.7466 79.9291 71.169 78.3727 72.4262 73.1058C73.5612 68.3621 72.8408 60.5194 67.669 58.4194C62.5787 56.3466 57.3933 60.3359 57.7195 65.6165Z" fill="#E58A7B"/>
<path d="M58.2426 59.6427C55.5922 60.6077 52.0582 59.8873 53.4446 68.063C54.9126 76.7213 52.6562 79.5689 52.6562 79.5689C52.6562 79.5689 62.7077 81.7096 72.9698 79.4397C72.9698 79.4397 69.8368 73.9621 70.7135 69.966C71.8349 64.8689 70.9446 62.9796 70.9446 62.9796C70.9446 62.9796 61.9601 58.2835 58.2359 59.6427H58.2426Z" fill="#263238"/>
<path d="M69.4562 68.3689C69.4426 69.4155 69.8096 70.4689 70.2853 71.2029C70.9989 72.3038 71.8484 71.8553 72.0659 70.7135C72.2562 69.6873 72.1135 67.8728 71.196 67.166C70.2921 66.4728 69.463 67.166 69.4562 68.3689Z" fill="#E58A7B"/>
<path d="M55.9388 60.5669C55.1776 58.433 58.8068 55.1436 66.4864 56.5097C74.1659 57.8757 74.499 64.264 74.499 64.264L72.9426 62.4223L73.0106 64.366L65.1203 65.8815L55.932 60.5737L55.9388 60.5669Z" fill="#263238"/>
<path d="M56.5914 84.2446C56.4827 83.5921 56.9244 82.9737 57.5768 82.8717C59.9691 82.4776 65.3991 81.6756 68.138 82.0562C70.17 82.3349 70.7069 83.5242 70.7953 84.496C70.8564 85.2164 70.2652 85.8213 69.5448 85.7873L57.7264 85.2504C57.1555 85.2232 56.6865 84.8018 56.5982 84.2446H56.5914Z" fill="#F382C5"/>
<path opacity="0.6" d="M56.5914 84.2446C56.4827 83.5921 56.9244 82.9737 57.5768 82.8717C59.9691 82.4776 65.3991 81.6756 68.138 82.0562C70.17 82.3349 70.7069 83.5242 70.7953 84.496C70.8564 85.2164 70.2652 85.8213 69.5448 85.7873L57.7264 85.2504C57.1555 85.2232 56.6865 84.8018 56.5982 84.2446H56.5914Z" fill="#43B943"/>
<path d="M63.4214 202.979L67.8049 206.017L75.1379 196.081L70.7544 193.037L63.4214 202.979Z" fill="#E58A7B"/>
<path d="M53.2 202.775L57.8281 205.419L64.3184 194.906L59.6902 192.269L53.2 202.775Z" fill="#E58A7B"/>
<path d="M75.1309 196.081L71.3522 201.205L66.9688 198.161L70.7542 193.037L75.1309 196.081Z" fill="#CF6F64"/>
<path d="M59.6835 192.269L64.3185 194.906L60.9748 200.322L56.3398 197.685L59.6835 192.269Z" fill="#CF6F64"/>
<path d="M67.1185 117.437C67.1185 117.437 84.2311 139.008 81.0234 159.627C78.4273 176.284 63.4147 198.84 63.4147 198.84L56.3535 195.334C56.3535 195.334 64.0263 180.341 69.0622 164.452C71.1758 157.785 70.2719 150.445 66.3234 144.675C57.6516 132.014 43.7671 139.544 53.1118 117.437H67.1254H67.1185Z" fill="#43B943"/>
<path opacity="0.4" d="M75.5115 131.294L73.0242 128.82C73.0242 129.017 77.8426 158.757 79.195 167.116C80.0106 164.554 80.6426 162.026 81.0164 159.62C82.5863 149.521 79.2834 139.191 75.5047 131.287L75.5115 131.294Z" fill="white"/>
<path d="M74.7572 117.437C74.7572 117.437 95.363 144.54 95.9407 160.796C96.4232 174.415 73.4932 200.723 73.4932 200.723L66.833 196.414C66.833 196.414 80.2417 177.711 83.6194 162.427C82.3349 147.292 54.7087 117.444 54.7087 117.444H74.7572V117.437Z" fill="#43B943"/>
<path d="M49.265 85.1009C47.0563 85.6242 44.9495 93.63 44.9495 93.63L53.5533 99.3727C53.5533 99.3727 56.4213 93.0387 55.4223 90.2659C54.3825 87.3776 52.0514 84.4349 49.265 85.0941V85.1009Z" fill="#43B943"/>
<path opacity="0.2" d="M50.9506 90.2523L50.3525 97.2319L53.5535 99.3795C53.5535 99.3795 55.0554 96.063 55.504 93.1678L50.9506 90.2523Z" fill="black"/>
<path d="M77.3059 85.2504C77.3059 85.2504 79.8476 86.1475 74.7573 117.43H53.1049C53.4651 108.615 53.4787 103.185 49.2651 85.0941C49.2651 85.0941 53.8049 84.1087 58.4603 83.8844C62.103 83.7077 65.0865 83.5922 68.2942 83.8844C72.5146 84.2718 77.3059 85.2504 77.3059 85.2504Z" fill="white"/>
<path d="M79.5077 90.2183C79.997 91.5776 80.5203 93.0387 81.0572 94.4523C81.5737 95.8795 82.1174 97.3067 82.6679 98.7271L84.3329 102.995L84.7543 104.062L84.965 104.592L85.0737 104.857C85.0941 104.905 85.0873 104.898 85.0805 104.898C85.0533 104.884 85.0261 104.748 84.6048 104.477C84.4009 104.347 84.0543 104.225 83.7145 104.218C83.3815 104.205 83.1096 104.286 82.9601 104.354C82.6543 104.504 82.6475 104.565 82.6543 104.551C82.6747 104.545 82.7358 104.483 82.8038 104.395C83.1028 104.042 83.4562 103.423 83.7756 102.812C84.0951 102.186 84.4009 101.52 84.7067 100.847C85.3048 99.495 85.8552 98.0814 86.4125 96.661C86.963 95.2407 87.4795 93.7999 87.996 92.3523L89.5455 88.0164L92.162 88.6756C91.6455 91.7746 90.9727 94.8193 90.1776 97.864C89.7902 99.3931 89.3349 100.909 88.8184 102.438C88.5601 103.206 88.2747 103.967 87.9417 104.748C87.595 105.537 87.2552 106.305 86.6504 107.209C86.4941 107.44 86.3106 107.678 86.0591 107.943C85.7941 108.201 85.4815 108.52 84.8222 108.819C84.4892 108.962 84.0339 109.084 83.5038 109.064C82.9737 109.05 82.4436 108.86 82.0698 108.629C81.3155 108.146 81.0572 107.691 80.8329 107.345C80.731 107.175 80.6426 106.991 80.5815 106.869L80.4524 106.604L80.1941 106.074L79.6776 105.02C79.0048 103.607 78.3456 102.186 77.7271 100.745C77.1087 99.3047 76.5106 97.8572 75.9261 96.396C75.3689 94.9144 74.8184 93.4805 74.3223 91.9038L79.5077 90.2115V90.2183Z" fill="#E58A7B"/>
<path d="M77.3059 85.2504C79.9088 85.8688 82.8312 93.562 82.8312 93.562L75.0972 100.154C75.0972 100.154 70.0817 91.7679 71.1011 89.0018C72.1545 86.1203 73.9079 84.4417 77.3059 85.2572V85.2504Z" fill="#43B943"/>
<path d="M90.7551 85.631L93.4667 83.3611L95.3561 86.3038L93.9629 88.764C93.9629 88.764 91.7473 90.7892 89.7833 89.763C89.1512 88.329 89.5454 86.6436 90.7483 85.6378L90.7551 85.631Z" fill="#E58A7B"/>
<path d="M98.3942 83.3679L98.1903 84.1019L93.8884 84.829L93.467 83.3611L98.3942 83.3679Z" fill="#E58A7B"/>
<path d="M74.0502 201.07L66.2891 196.047L67.6823 193.635L76.4017 198.997L74.0502 201.07Z" fill="white"/>
<path d="M60.8524 205.059C60.234 205.059 59.4253 204.665 58.9291 204.393C58.8816 204.366 58.8612 204.318 58.868 204.271C58.868 204.223 58.9088 204.175 58.9563 204.162C59.167 204.094 61.0087 203.53 61.5253 203.971C61.6068 204.039 61.7019 204.169 61.668 204.379C61.6272 204.665 61.4981 204.862 61.2874 204.971C61.1651 205.032 61.0155 205.059 60.8524 205.059ZM59.3233 204.318C60.166 204.746 60.8456 204.909 61.1719 204.746C61.3078 204.678 61.3893 204.549 61.4165 204.352C61.4301 204.243 61.3961 204.196 61.3553 204.169C61.0835 203.938 60.0641 204.114 59.3165 204.325L59.3233 204.318Z" fill="#263238"/>
<path d="M58.997 204.413C58.963 204.413 58.929 204.4 58.9087 204.372C58.8747 204.338 58.8679 204.291 58.8747 204.25C58.8951 204.189 59.3164 202.714 60.0164 202.374C60.1999 202.286 60.3902 202.279 60.5737 202.354C60.8659 202.476 60.8931 202.694 60.8863 202.809C60.8388 203.421 59.5951 204.264 59.0242 204.406C59.0174 204.406 59.0038 204.406 58.997 204.406V204.413ZM60.3155 202.558C60.2543 202.558 60.1931 202.571 60.1252 202.605C59.7106 202.809 59.3572 203.605 59.1941 204.087C59.7921 203.836 60.6077 203.17 60.6349 202.796C60.6349 202.735 60.6281 202.66 60.4786 202.592C60.4242 202.572 60.3698 202.558 60.3155 202.558Z" fill="#263238"/>
<path d="M70.5638 207.995C69.7958 207.995 68.7288 207.009 68.1444 206.405C68.1036 206.364 68.0968 206.309 68.124 206.262C68.1512 206.214 68.2123 206.187 68.2531 206.194C68.5249 206.228 70.8832 206.547 71.223 207.213C71.2842 207.342 71.2842 207.478 71.2094 207.614C71.0871 207.832 70.9036 207.961 70.6725 207.988C70.6385 207.988 70.6046 207.988 70.5706 207.988L70.5638 207.995ZM68.5929 206.5C69.4492 207.336 70.2036 207.798 70.6317 207.737C70.7813 207.716 70.8968 207.635 70.9783 207.485C71.0123 207.431 71.0123 207.376 70.9851 207.329C70.8016 206.969 69.5444 206.649 68.5861 206.5H68.5929Z" fill="#263238"/>
<path d="M68.6679 206.479C68.4912 206.479 68.3349 206.466 68.2125 206.445C68.1718 206.438 68.131 206.404 68.1174 206.364C68.1038 206.323 68.1106 206.275 68.1378 206.241C68.1786 206.194 69.096 205.086 69.9659 205.011C70.2378 204.991 70.4688 205.066 70.6659 205.229C70.931 205.46 70.9174 205.664 70.8494 205.793C70.632 206.248 69.4562 206.479 68.6679 206.479ZM68.4912 206.221C69.2523 206.262 70.462 206.01 70.6252 205.677C70.6387 205.65 70.6795 205.569 70.5028 205.412C70.3533 205.29 70.1834 205.236 69.9931 205.249C69.4222 205.297 68.7834 205.902 68.498 206.214L68.4912 206.221Z" fill="#263238"/>
<path d="M59.1806 203.7L53.4175 202.069C53.2068 202.007 52.9961 202.109 52.9078 202.306L50.9641 206.683C50.7602 207.138 51.0457 207.703 51.5282 207.825C53.5466 208.355 54.5524 208.511 57.0874 209.232C58.6437 209.673 60.8796 210.475 63.034 211.087C65.1408 211.685 65.9019 209.599 65.0592 209.15C61.2806 207.145 60.9816 205.779 59.9485 204.257C59.7651 203.985 59.4864 203.788 59.1806 203.7Z" fill="white"/>
<path d="M68.3009 205.616L63.3805 202.198C63.2038 202.075 62.9727 202.096 62.8232 202.252L59.5611 205.759C59.2213 206.119 59.3028 206.744 59.7242 207.023C61.4572 208.185 62.3543 208.661 64.5222 210.163C65.8543 211.087 68.5115 213.139 70.3465 214.41C72.1474 215.661 73.5474 213.935 72.895 213.241C69.9727 210.122 69.3339 208.165 68.8513 206.391C68.763 206.071 68.5659 205.793 68.3076 205.616H68.3009Z" fill="white"/>
<path d="M64.3115 199.289L55.4426 194.878L56.3601 192.479L65.8339 197.121L64.3115 199.289Z" fill="white"/>
<path d="M52.7785 116.166L52.031 118.103C51.9562 118.252 52.1329 118.409 52.3844 118.409H74.8659C75.063 118.409 75.2261 118.313 75.2329 118.191L75.4299 116.254C75.4435 116.118 75.2736 116.01 75.063 116.01H53.1319C52.9688 116.01 52.8261 116.077 52.7785 116.173V116.166Z" fill="white"/>
<path opacity="0.4" d="M52.7785 116.166L52.031 118.103C51.9562 118.252 52.1329 118.409 52.3844 118.409H74.8659C75.063 118.409 75.2261 118.313 75.2329 118.191L75.4299 116.254C75.4435 116.118 75.2736 116.01 75.063 116.01H53.1319C52.9688 116.01 52.8261 116.077 52.7785 116.173V116.166Z" fill="white"/>
<path d="M56.3193 118.612H55.7348C55.6193 118.612 55.5309 118.551 55.5377 118.477L55.8164 115.955C55.8232 115.88 55.9251 115.819 56.0406 115.819H56.6251C56.7406 115.819 56.829 115.88 56.8222 115.955L56.5435 118.477C56.5367 118.551 56.4348 118.612 56.3193 118.612Z" fill="#43B943"/>
<path d="M70.1833 118.612H69.5988C69.4833 118.612 69.3949 118.551 69.4017 118.477L69.6804 115.955C69.6872 115.88 69.7891 115.819 69.9046 115.819H70.4891C70.6046 115.819 70.693 115.88 70.6862 115.955L70.4076 118.477C70.4008 118.551 70.2988 118.612 70.1833 118.612Z" fill="#43B943"/>
<g style="mix-blend-mode:multiply">
<path d="M55.8027 233.711C65.858 233.711 74.0095 233.121 74.0095 232.393C74.0095 231.665 65.858 231.074 55.8027 231.074C45.7474 231.074 37.5959 231.665 37.5959 232.393C37.5959 233.121 45.7474 233.711 55.8027 233.711Z" fill="#F5F5F5"/>
</g>
<path d="M66.8939 230.531C63.6726 229.593 60.125 228.39 57.9367 227.112C57.8755 227.078 57.8143 227.051 57.7464 227.017V212.453H64.2231C65.2969 212.453 66.16 211.583 66.16 210.516C66.16 209.449 65.2901 208.579 64.2231 208.579H57.7464V142.1H53.8658V208.579H47.3891C46.3153 208.579 45.4522 209.449 45.4522 210.516C45.4522 211.583 46.3221 212.453 47.3891 212.453H53.8658V227.017C53.8046 227.051 53.7367 227.078 53.6755 227.112C51.4804 228.397 47.9396 229.6 44.7183 230.531C43.6581 230.836 43.8823 232.393 44.9833 232.393H66.6289C67.7299 232.393 67.9541 230.836 66.8939 230.531Z" fill="#E0E0E0"/>
<path d="M67.8929 135.324H43.7259C41.7817 135.324 40.2056 136.9 40.2056 138.844V146.028C40.2056 147.972 41.7817 149.548 43.7259 149.548H67.8929C69.8371 149.548 71.4133 147.972 71.4133 146.028V138.844C71.4133 136.9 69.8371 135.324 67.8929 135.324Z" fill="#8ED58E"/>
<path d="M43.5017 149.548V150.785C43.5017 151.805 44.6095 152.641 45.9687 152.641H65.6502C67.0094 152.641 68.1172 151.805 68.1172 150.785V149.548H43.5017Z" fill="white"/>
<path opacity="0.3" d="M43.5017 149.548V150.785C43.5017 151.805 44.6095 152.641 45.9687 152.641H65.6502C67.0094 152.641 68.1172 151.805 68.1172 150.785V149.548H43.5017Z" fill="white"/>
</svg>
