<svg width="289" height="200" viewBox="0 0 289 200" fill="none" xmlns="http://www.w3.org/2000/svg">
<path d="M236.351 26.9591L220.418 35.8142L213.34 31.8512L236.351 19.2905L258.549 32.1086L251.916 35.8142L236.351 26.9591Z" fill="white"/>
<path d="M236.24 29.0745L254.101 38.5606L246.433 42.7105L236.24 36.8896L226.052 42.7105L218.6 38.5203L236.24 29.0745Z" fill="white"/>
<path d="M236.351 39.7066L243.949 44.008L236.351 48.4911L228.94 44.0988L236.351 39.7066Z" fill="white"/>
<path d="M0.0302913 164.455V163.501C0.0302913 162.835 0.363493 162.497 1.03494 162.497H5.09394C5.76035 162.497 6.0986 162.83 6.0986 163.501V163.885C6.0986 165.096 6.33588 165.924 6.81548 166.369C7.29509 166.813 8.16848 167.035 9.44071 167.035H11.6873C12.9292 167.035 13.7976 166.798 14.2923 166.318C14.7871 165.839 15.0345 164.95 15.0345 163.643V163.067C15.0345 162.143 14.6609 161.436 13.9137 160.942C13.1665 160.447 12.2325 160.154 11.1219 160.058C10.0061 159.962 8.8046 159.78 7.51723 159.508C6.22986 159.235 5.02326 158.887 3.91259 158.458C2.79687 158.029 1.86795 157.185 1.12077 155.928C0.37359 154.671 0 153.056 0 151.082V149.411C0 146.927 0.701743 145.003 2.10018 143.63C3.49862 142.262 5.44229 141.576 7.92616 141.576H12.702C15.2162 141.576 17.175 142.262 18.5735 143.63C19.9719 144.998 20.6736 146.927 20.6736 149.411V150.32C20.6736 150.986 20.3404 151.324 19.669 151.324H15.61C14.9436 151.324 14.6053 150.991 14.6053 150.32V150.032C14.6053 148.79 14.3681 147.947 13.8884 147.502C13.4088 147.058 12.5354 146.836 11.2632 146.836H9.40032C8.09276 146.836 7.20927 147.083 6.74985 147.578C6.28539 148.073 6.05821 149.037 6.05821 150.466V151.375C6.05821 152.869 7.36577 153.732 9.97585 153.954C12.6819 154.177 15.0849 154.717 17.1851 155.58C18.3008 156.06 19.2298 156.908 19.9769 158.135C20.7241 159.361 21.0977 160.926 21.0977 162.84V164.465C21.0977 166.949 20.396 168.878 18.9975 170.246C17.594 171.614 15.6554 172.301 13.1716 172.301H7.96654C5.48268 172.301 3.539 171.614 2.14057 170.246C0.737082 168.878 0.040388 166.949 0.040388 164.465L0.0302913 164.455Z" fill="white"/>
<path d="M35.6072 172.285H31.5936C30.8919 172.285 30.5435 171.952 30.5435 171.281V147.356C30.5435 147.008 30.3668 146.831 30.0185 146.831H24.5762C23.9098 146.831 23.5715 146.498 23.5715 145.826V142.58C23.5715 141.914 23.9047 141.575 24.5762 141.575H42.6296C43.296 141.575 43.6343 141.909 43.6343 142.58V145.826C43.6343 146.493 43.3011 146.831 42.6296 146.831H37.1874C36.8037 146.831 36.6118 147.008 36.6118 147.356V171.281C36.6118 171.947 36.2786 172.285 35.6072 172.285Z" fill="white"/>
<path d="M51.8937 172.285H47.8347C47.1683 172.285 46.8301 171.952 46.8301 171.281V142.58C46.8301 141.914 47.1633 141.575 47.8347 141.575H59.1989C61.6828 141.575 63.6214 142.262 65.0249 143.63C66.4233 144.998 67.1251 146.927 67.1251 149.411V153.136C67.1251 156.736 65.7064 159.124 62.8742 160.3V160.492L67.9833 171.139C68.2711 171.902 67.9985 172.285 67.1705 172.285H63.3034C62.7278 172.285 62.3139 172.22 62.0614 172.094C61.804 171.967 61.597 171.695 61.4405 171.281L56.6646 160.967H53.4638C53.0801 160.967 52.8883 161.143 52.8883 161.492V171.281C52.8883 171.947 52.5551 172.285 51.8836 172.285H51.8937ZM53.4234 156.095H58.1034C59.1232 156.095 59.8704 155.878 60.35 155.449C60.8296 155.02 61.0669 154.328 61.0669 153.374V149.648C61.0669 148.664 60.8296 147.947 60.35 147.497C59.8704 147.053 59.1232 146.831 58.1034 146.831H53.4234C53.0751 146.831 52.8984 147.008 52.8984 147.356V155.57C52.8984 155.918 53.0751 156.095 53.4234 156.095Z" fill="white"/>
<path d="M75.7226 172.285H71.1386C70.5681 172.285 70.3763 171.952 70.5681 171.281L78.1156 142.58C78.3378 141.914 78.8174 141.575 79.5494 141.575H85.9004C86.6981 141.575 87.1727 141.909 87.3342 142.58L94.8817 171.281C95.0736 171.947 94.8817 172.285 94.3062 172.285H89.7221C89.3738 172.285 89.1315 172.215 89.0053 172.068C88.879 171.927 88.7831 171.665 88.7175 171.281L87.3796 166.025H78.0702L76.7323 171.281C76.6667 171.665 76.5657 171.927 76.4244 172.068C76.283 172.21 76.0508 172.285 75.7327 172.285H75.7226ZM82.6492 147.356L79.2112 161.159H86.2791L82.841 147.356H82.6492Z" fill="white"/>
<path d="M108.195 172.285H104.181C103.479 172.285 103.131 171.952 103.131 171.281V147.356C103.131 147.008 102.954 146.831 102.606 146.831H97.1636C96.4972 146.831 96.1589 146.498 96.1589 145.826V142.58C96.1589 141.914 96.4921 141.575 97.1636 141.575H115.217C115.883 141.575 116.222 141.909 116.222 142.58V145.826C116.222 146.493 115.889 146.831 115.217 146.831H109.775C109.391 146.831 109.199 147.008 109.199 147.356V171.281C109.199 171.947 108.866 172.285 108.195 172.285Z" fill="white"/>
<path d="M122.613 172.285H118.029C117.458 172.285 117.267 171.952 117.458 171.281L125.006 142.58C125.228 141.914 125.708 141.575 126.44 141.575H132.791C133.588 141.575 134.063 141.909 134.225 142.58L141.772 171.281C141.964 171.947 141.772 172.285 141.197 172.285H136.613C136.264 172.285 136.022 172.215 135.896 172.068C135.769 171.927 135.674 171.665 135.608 171.281L134.27 166.025H124.961L123.623 171.281C123.557 171.665 123.456 171.927 123.315 172.068C123.173 172.21 122.941 172.285 122.623 172.285H122.613ZM129.54 147.356L126.102 161.159H133.169L129.731 147.356H129.54Z" fill="white"/>
<path d="M144.822 164.455V163.501C144.822 162.835 145.155 162.496 145.826 162.496H149.885C150.552 162.496 150.89 162.83 150.89 163.501V163.885C150.89 165.096 151.127 165.924 151.607 166.369C152.086 166.813 152.96 167.035 154.232 167.035H156.479C157.72 167.035 158.589 166.798 159.084 166.318C159.578 165.839 159.826 164.95 159.826 163.642V163.067C159.826 162.143 159.452 161.436 158.705 160.941C157.958 160.447 157.024 160.154 155.913 160.058C154.797 159.962 153.596 159.78 152.308 159.508C151.021 159.235 149.815 158.887 148.704 158.458C147.588 158.028 146.659 157.185 145.912 155.928C145.165 154.671 144.791 153.056 144.791 151.082V149.411C144.791 146.927 145.493 145.003 146.891 143.63C148.29 142.262 150.234 141.575 152.717 141.575H157.493C160.007 141.575 161.966 142.262 163.365 143.63C164.763 144.998 165.465 146.927 165.465 149.411V150.319C165.465 150.986 165.132 151.324 164.46 151.324H160.401C159.735 151.324 159.397 150.991 159.397 150.319V150.032C159.397 148.79 159.159 147.947 158.68 147.502C158.2 147.058 157.327 146.836 156.054 146.836H154.192C152.884 146.836 152.001 147.083 151.541 147.578C151.077 148.073 150.849 149.037 150.849 150.466V151.375C150.849 152.869 152.157 153.732 154.767 153.954C157.473 154.176 159.876 154.717 161.976 155.58C163.092 156.06 164.021 156.908 164.768 158.135C165.515 159.361 165.889 160.926 165.889 162.84V164.465C165.889 166.949 165.187 168.878 163.789 170.246C162.385 171.614 160.447 172.301 157.963 172.301H152.758C150.274 172.301 148.33 171.614 146.932 170.246C145.528 168.878 144.832 166.949 144.832 164.465L144.822 164.455Z" fill="white"/>
<path d="M183.645 172.285H178.298C175.784 172.285 173.84 171.619 172.472 170.281C171.104 168.943 170.417 167.02 170.417 164.501V149.36C170.417 146.846 171.104 144.918 172.472 143.58C173.84 142.242 175.784 141.575 178.298 141.575H183.645C186.159 141.575 188.102 142.242 189.471 143.58C190.839 144.918 191.525 146.841 191.525 149.36V164.501C191.525 167.015 190.839 168.943 189.471 170.281C188.102 171.619 186.159 172.285 183.645 172.285ZM179.252 167.035H182.645C183.665 167.035 184.387 166.818 184.816 166.389C185.245 165.96 185.462 165.238 185.462 164.218V149.653C185.462 148.633 185.245 147.911 184.816 147.482C184.387 147.053 183.66 146.836 182.645 146.836H179.252C178.233 146.836 177.516 147.053 177.102 147.482C176.688 147.911 176.481 148.638 176.481 149.653V164.218C176.481 165.238 176.688 165.96 177.102 166.389C177.516 166.818 178.233 167.035 179.252 167.035Z" fill="white"/>
<path d="M212.532 141.58H216.546C217.247 141.58 217.596 141.899 217.596 142.535V164.501C217.596 166.985 216.904 168.903 215.521 170.256C214.137 171.609 212.204 172.285 209.72 172.285H204.47C201.955 172.285 200.012 171.619 198.644 170.281C197.275 168.943 196.589 167.02 196.589 164.501V142.58C196.589 141.914 196.922 141.575 197.594 141.575H201.653C202.319 141.575 202.657 141.909 202.657 142.58V164.213C202.657 165.233 202.874 165.955 203.303 166.384C203.733 166.813 204.439 167.03 205.429 167.03H208.725C209.745 167.03 210.467 166.813 210.896 166.384C211.325 165.955 211.543 165.233 211.543 164.213V142.58C211.543 141.914 211.876 141.575 212.547 141.575L212.532 141.58Z" fill="white"/>
<path d="M228.102 172.285H224.139C223.472 172.285 223.134 171.952 223.134 171.281V142.58C223.134 141.914 223.467 141.575 224.139 141.575H227.718C228.384 141.575 228.834 141.798 229.056 142.242L238.704 160.341H238.895V142.575C238.895 141.909 239.229 141.57 239.9 141.57H243.863C244.53 141.57 244.868 141.904 244.868 142.575V171.276C244.868 171.942 244.535 172.28 243.863 172.28H240.375C239.673 172.28 239.163 171.962 238.845 171.326L229.293 153.561H229.101V171.276C229.101 171.942 228.768 172.28 228.097 172.28L228.102 172.285Z" fill="white"/>
<path d="M250.643 171.286V142.585C250.643 141.919 250.977 141.58 251.648 141.58H263.441C265.925 141.58 267.859 142.257 269.242 143.61C270.625 144.963 271.317 146.881 271.317 149.365V164.506C271.317 166.99 270.625 168.908 269.242 170.261C267.859 171.614 265.925 172.291 263.441 172.291H251.648C250.982 172.291 250.643 171.957 250.643 171.286ZM257.232 167.035H262.437C263.456 167.035 264.178 166.818 264.607 166.389C265.037 165.96 265.254 165.238 265.254 164.218V149.653C265.254 148.633 265.037 147.911 264.607 147.482C264.178 147.053 263.451 146.836 262.437 146.836H257.232C256.883 146.836 256.707 147.013 256.707 147.361V166.51C256.707 166.858 256.883 167.035 257.232 167.035Z" fill="white"/>
<path d="M281.136 137.663V138.531H279.278V144.327H278.193V138.531H276.345V137.663H281.141H281.136Z" fill="white"/>
<path d="M288.76 137.764V144.322H287.674V139.405L285.776 144.322H284.832L282.923 139.405V144.322H281.848V137.764H283.151L285.322 143.004L287.452 137.764H288.754H288.76Z" fill="white"/>
<path d="M243.732 48.3295V48.9555H242.394V53.1306H241.612V48.9555H240.279V48.3295H243.732Z" fill="white"/>
<path d="M249.225 48.4052V53.1306H248.442V49.5865L247.074 53.1306H246.393L245.019 49.5865V53.1306H244.242V48.4052H245.181L246.746 52.1764L248.281 48.4052H249.22H249.225Z" fill="white"/>
<path d="M105.989 180.262V199.643H102.783V185.114L97.1789 199.643H94.3921L88.758 185.114V199.643H85.5774V180.262H89.4244L95.836 195.741L102.136 180.262H105.983H105.989Z" fill="white"/>
<path d="M121.21 179.954V191.636C121.21 193.383 121.593 194.686 122.366 195.539C123.138 196.392 124.219 196.821 125.612 196.821C127.005 196.821 128.061 196.392 128.833 195.539C129.605 194.686 129.989 193.383 129.989 191.636V179.954H133.17V191.636C133.17 194.332 132.473 196.372 131.08 197.755C129.686 199.138 127.844 199.835 125.557 199.835C123.27 199.835 121.467 199.144 120.089 197.755C118.716 196.372 118.024 194.332 118.024 191.636V179.954H121.205H121.21Z" fill="white"/>
<path d="M157.493 197.094C157.029 197.922 156.322 198.588 155.373 199.088C154.424 199.593 153.263 199.84 151.889 199.84C150.516 199.84 149.35 199.603 148.29 199.128C147.23 198.654 146.387 197.987 145.751 197.134C145.119 196.281 144.756 195.291 144.665 194.176H148.068C148.159 195.029 148.527 195.766 149.168 196.377C149.809 196.993 150.668 197.296 151.748 197.296C152.712 197.296 153.465 197.033 153.995 196.513C154.525 195.993 154.792 195.322 154.792 194.504C154.792 193.797 154.595 193.217 154.207 192.762C153.818 192.308 153.333 191.949 152.758 191.687C152.182 191.424 151.39 191.126 150.39 190.793C149.163 190.405 148.164 190.011 147.391 189.622C146.619 189.233 145.963 188.663 145.427 187.921C144.887 187.179 144.62 186.204 144.62 184.993C144.62 183.932 144.882 183.003 145.402 182.206C145.922 181.408 146.664 180.787 147.634 180.353C148.598 179.914 149.714 179.697 150.981 179.697C152.99 179.697 154.58 180.181 155.762 181.146C156.943 182.115 157.614 183.377 157.786 184.937H154.353C154.222 184.195 153.874 183.559 153.308 183.029C152.743 182.499 151.965 182.231 150.981 182.231C150.087 182.231 149.37 182.458 148.835 182.913C148.295 183.367 148.027 184.023 148.027 184.881C148.027 185.548 148.214 186.103 148.583 186.537C148.956 186.977 149.426 187.32 149.991 187.572C150.557 187.825 151.334 188.118 152.319 188.451C153.561 188.839 154.58 189.238 155.373 189.637C156.166 190.036 156.832 190.617 157.382 191.379C157.927 192.141 158.205 193.146 158.205 194.393C158.205 195.357 157.973 196.256 157.508 197.084L157.493 197.094Z" fill="white"/>
<path d="M172.912 179.954V199.643H169.731V179.954H172.912Z" fill="white"/>
<path d="M199.936 181.6C201.537 182.827 202.612 184.493 203.172 186.593H199.8C199.335 185.401 198.598 184.462 197.584 183.761C196.569 183.064 195.327 182.716 193.858 182.716C192.687 182.716 191.642 183.003 190.723 183.579C189.804 184.154 189.077 184.977 188.547 186.048C188.017 187.118 187.754 188.365 187.754 189.799C187.754 191.232 188.022 192.454 188.547 193.519C189.077 194.59 189.804 195.413 190.723 195.988C191.642 196.564 192.687 196.851 193.858 196.851C195.327 196.851 196.569 196.503 197.584 195.806C198.598 195.11 199.335 194.176 199.8 193.005H203.172C202.612 195.105 201.537 196.766 199.936 197.982C198.336 199.199 196.327 199.81 193.913 199.81C192.056 199.81 190.41 199.386 188.976 198.543C187.542 197.7 186.437 196.518 185.659 194.999C184.877 193.484 184.488 191.752 184.488 189.799C184.488 187.845 184.877 186.113 185.659 184.599C186.442 183.084 187.547 181.898 188.976 181.045C190.41 180.191 192.05 179.762 193.913 179.762C196.332 179.762 198.336 180.378 199.936 181.605V181.6Z" fill="white"/>
<path d="M159.715 43.1447C159.715 43.1447 159.705 43.1598 159.695 43.1699L159.75 43.2557L159.715 43.1447Z" fill="white"/>
<path d="M37.8841 59.5624C45.8456 59.5927 54.0797 59.628 62.1775 59.5523C72.7996 59.4564 82.8006 56.2859 91.9183 50.1267C96.7699 46.8502 101.97 43.3011 108.286 38.9594C112.006 36.3998 115.944 36.4049 120.326 38.9847C121.366 39.5955 122.28 40.4084 123.118 41.1909C123.996 42.0188 124.85 42.8973 125.673 43.7454L125.723 43.7959C126.087 44.1745 126.455 44.5532 126.824 44.9268C127.258 45.366 127.682 45.8103 128.111 46.2545C129.101 47.2844 130.125 48.3497 131.201 49.319C133.018 50.9698 134.543 52.1966 135.992 53.1962C137.961 54.5442 139.758 55.5791 141.49 56.3616C142.721 56.917 144.049 57.3007 145.337 57.6742C145.892 57.8358 146.467 58.0024 147.028 58.1791L148.759 58.7344L146.942 58.8455C145.533 58.9364 144.12 58.6436 142.757 58.3608C141.136 58.0276 139.485 57.6944 137.789 57.9368H137.794H137.779C137.749 57.9368 137.718 57.9418 137.688 57.9469L137.345 58.0832L132.746 59.623L134.2 58.6032C135.719 57.5329 136.577 56.7554 136.986 56.3414C136.613 55.8164 136.204 55.6397 135.628 55.7558C133.467 56.8968 129.59 58.4467 128.621 58.8303L125.854 59.7542L128.091 58.3154C129.969 57.1038 132.241 55.5589 133.528 54.6754C133.331 54.5492 133.129 54.4937 132.902 54.4937C132.352 54.7814 131.761 55.0692 131.15 55.3469C124.37 57.9065 120.377 58.6335 120.377 58.6335L120.503 58.5779C124.365 56.816 129.424 53.8929 131.105 52.9034C130.65 52.3834 130.297 52.2976 130.055 52.2875C128.656 53.1053 127.323 53.8323 126.061 54.4886L122.825 55.9729C123.835 55.5438 124.91 55.0541 126.056 54.4886C123.098 56.0234 120.569 57.129 118.65 57.8913L122.825 55.9729C117.625 58.1841 114.344 58.7041 114.344 58.7041L114.465 58.6486C120.584 55.7407 126.48 51.6867 128.363 50.3489L127.475 49.5411C120.003 54.1807 112.299 58.9414 102.99 59.9713H125.233L125.183 59.9865L125.763 59.9713H239.547C239.244 59.9006 238.941 59.83 238.638 59.7694C237.502 59.5371 236.366 59.3201 235.23 59.103C232.847 58.6436 230.379 58.174 227.981 57.5783C220.797 55.8012 214.844 52.4339 210.296 47.5722C205.994 42.978 201.855 38.2627 198.376 34.2542C196.296 31.8612 194.226 29.4127 192.222 27.045C189.375 23.6776 186.436 20.1992 183.458 16.8621C181.13 14.2571 178.177 12.5709 174.668 11.8489C169.544 10.7938 164.778 12.2276 159.664 16.3623C155.03 20.1083 150.996 24.7428 147.669 30.1346C147.538 30.3416 147.447 30.589 147.351 30.8515L147.305 30.9727C147.82 31.21 148.002 30.9525 148.335 30.4678C148.401 30.3719 148.467 30.276 148.537 30.1851C149.103 29.4581 149.658 28.7211 150.208 27.989L150.234 27.9537C151.294 26.5452 152.389 25.0962 153.535 23.7281C156.953 19.664 160.891 16.6147 165.238 14.666C170.357 12.374 175.173 12.8385 179.545 16.0493C181.125 17.2105 182.711 18.7048 184.377 20.6283C188.511 25.384 192.616 30.276 196.584 35.0165L197.2 35.7486C197.649 36.2837 198.093 36.8189 198.543 37.354C203.415 43.2002 208.453 49.2432 215.218 53.3376L215.334 53.4083L215.021 53.9939L214.466 53.7314C212.376 52.7469 210.215 51.7271 208.493 50.2226C204.863 47.0522 201.476 43.7808 198.422 40.4992C195.675 37.5458 192.959 34.4713 190.334 31.4977C187.931 28.7766 185.462 25.9797 182.978 23.2889C176.486 16.2462 168.787 15.3274 160.719 20.6384C155.807 23.8694 152.273 28.6908 149.153 32.9416C148.926 33.2496 148.84 33.4969 148.896 33.6635C148.951 33.8301 149.163 33.9816 149.517 34.1129L149.91 33.5828C150.294 33.0628 150.678 32.5428 151.072 32.0278C155.661 26.01 160.265 22.2085 165.556 20.0629C168.746 18.7654 172.043 18.831 175.628 20.2547C179.116 21.638 181.565 24.1623 183.781 26.631C185.205 28.2213 186.623 29.8166 188.047 31.4119L188.213 31.6038C192.187 36.0717 196.281 40.6759 200.451 45.0681C205.924 50.8285 211.214 54.2059 217.111 55.6952C217.288 55.7407 217.444 55.8113 217.596 55.882C217.661 55.9123 217.722 55.9426 217.788 55.9678L220.892 57.2603L217.596 56.6191C210.917 55.3166 203.187 51.1162 197.897 45.9163C195.892 43.9474 193.959 41.8573 192.091 39.8379C191.02 38.6818 189.915 37.4903 188.799 36.3191C188.012 35.4962 187.234 34.6581 186.452 33.8251C184.351 31.5735 182.181 29.2511 179.863 27.1712C175.789 23.5211 171.16 22.3095 166.101 23.5716C159.972 25.1013 156.029 29.6954 152.218 34.1381L152.152 34.2138C151.859 34.5571 151.566 34.8954 151.274 35.2387C151.279 35.2488 151.284 35.3396 151.375 35.6527C152.233 34.9156 153.071 34.1785 153.879 33.4616L153.919 33.4263C156.044 31.5482 158.044 29.7863 160.209 28.191C165.849 24.0411 171.806 23.8139 177.43 27.5397C179.035 28.6049 180.419 29.9731 181.56 31.1696C183.311 33.0072 185.063 34.9055 186.754 36.7381C189.218 39.4037 191.747 42.145 194.322 44.7602C199.658 50.1823 204.727 53.4991 210.281 55.1954C210.901 55.3873 211.502 55.5943 212.199 55.8416L212.234 55.8568C212.573 55.9729 212.931 56.0991 213.325 56.2354L214.94 56.7857L213.239 56.8968C213.057 56.9069 212.916 56.922 212.805 56.9372C212.578 56.9624 212.426 56.9775 212.265 56.9372C207.11 55.6801 200.517 53.6203 195.266 48.8596C192.601 46.4413 190.021 43.8464 187.527 41.3373C186.073 39.8732 184.574 38.3637 183.059 36.8946C182.68 36.526 182.302 36.1525 181.923 35.7789C180.398 34.2643 178.818 32.7043 177.061 31.4927C172.644 28.4484 168.05 27.9941 163.405 30.1346C159.957 31.7249 157.029 34.1179 154.454 37.46C154.197 37.7932 153.99 38.187 153.768 38.601C153.717 38.6969 153.667 38.7928 153.611 38.8887C154.262 39.0755 154.525 38.7171 154.878 38.2375C154.979 38.1012 155.09 37.9447 155.216 37.8134C159.286 33.4566 163.067 31.3059 167.464 30.8515C173.038 30.2709 177.066 33.3102 180.59 36.6826C181.938 37.975 183.19 39.3987 184.402 40.7769C185.043 41.5089 185.709 42.2612 186.386 42.9982C192.151 49.2382 197.341 53.0296 203.213 55.2812C203.692 55.463 204.167 55.6599 204.636 55.8517L205.595 56.2405L205.111 57.3814L204.798 57.2502C203.803 56.8261 202.804 56.4121 201.809 56.0032L201.718 55.9678C199.462 55.0339 197.129 54.0696 194.867 52.9993C190.172 50.7729 186.679 47.3399 182.605 43.0891C180.706 41.1101 178.662 39.0352 176.37 37.354C173.558 35.2942 169.736 33.0931 165.066 34.34C161.976 35.163 159.27 37.0208 156.554 40.1761C156.352 40.4134 156.201 40.7163 156.044 41.0394C156.004 41.1252 155.964 41.206 155.923 41.2817L155.984 41.3373C156.206 41.1808 156.433 41.0243 156.66 40.8678C157.301 40.4285 157.958 39.9742 158.559 39.4794C164.208 34.8096 169.721 34.6682 175.4 39.0554C177.127 40.3882 178.748 41.9078 180.313 43.3819L180.378 43.4425C180.944 43.9726 181.504 44.5027 182.074 45.0227C182.716 45.6083 183.362 46.2343 183.937 46.7846C184.846 47.658 185.78 48.5566 186.749 49.3896C188.501 50.8941 190.001 52.1108 191.626 53.1558C193.525 54.3776 195.408 55.3822 197.22 56.1294C198.497 56.6595 199.825 57.0179 201.239 57.3966C201.865 57.5632 202.506 57.7348 203.147 57.9267L205.53 58.6284L203.046 58.5931C198.795 58.5325 195.12 56.821 191.566 55.1702C190.98 54.8976 190.394 54.6249 189.804 54.3574C185.79 52.55 182.64 49.5613 179.596 46.6735C178.823 45.9415 178.041 45.1994 177.258 44.4926C175.34 42.7509 173.532 41.4181 171.72 40.4184C168.403 38.5909 162.209 40.0095 159.755 43.1295C160.007 43.0437 160.24 42.9629 160.452 42.8518C165.475 40.2317 170.65 40.8829 174.658 44.639C175.35 45.2903 176.036 45.9415 176.723 46.5978C180.974 50.6568 185.371 54.8471 190.97 57.3461L193.903 58.6537L190.763 57.9873C183.382 56.4273 177.723 55.1096 172.412 53.7162C165.349 51.8634 159.22 47.8398 153.677 41.4181C149.84 36.9703 146.604 32.881 143.777 28.9129C137.754 20.4466 130.625 12.586 122.593 5.55851C114.707 -1.3428 106.786 -1.81231 98.3803 4.11968C93.8165 7.34063 90.2623 11.4602 87.107 15.4334L84.3606 18.8916C78.7568 25.9494 72.9762 33.2344 67.0796 40.2216C59.1181 49.6673 48.6778 55.7205 36.0565 58.2043C33.9361 58.6234 31.7754 59.002 29.6853 59.3756L29.6348 59.3857C29.3269 59.4412 29.0189 59.4968 28.7109 59.5472C31.7703 59.5523 34.8247 59.5674 37.8841 59.5775H37.8942L37.8841 59.5624ZM149.471 57.3158C143.135 55.7811 138.036 53.1508 133.871 49.2786C131.907 47.4561 130.004 45.5073 128.161 43.6293C126.97 42.4126 125.743 41.1606 124.511 39.9489C122.84 38.3082 120.76 36.4958 117.953 35.4911C114.288 34.1734 110.835 34.5723 107.695 36.6775C103.298 39.6208 98.8801 42.7509 94.5586 45.9819C93.1248 47.0572 91.7012 48.0568 90.328 48.9656C90.3128 48.9757 87.8138 50.9446 83.0177 53.1356C80.7409 54.2261 78.4589 55.1197 76.2275 55.7911C75.8438 55.9073 75.4551 56.0133 75.0613 56.1143C68.0742 58.2195 60.4862 59.2898 52.5096 59.2898C51.3535 59.2898 50.1671 59.2696 48.9857 59.2241H48.8494L48.8393 58.5527L48.9756 58.5426C49.117 58.5325 63.1922 57.4572 70.8912 55.3368C71.3254 55.2106 71.7596 55.0793 72.1937 54.9481L76.7626 53.2618C81.0993 51.2929 85.0068 48.3648 88.7882 45.5275C89.293 45.1489 89.8029 44.7652 90.3128 44.3916C96.0732 40.1054 101.379 36.2837 106.529 32.7094C108.457 31.3665 110.87 30.69 113.905 30.6395C118.191 30.5587 121.265 32.9366 123.704 35.269C125.355 36.8441 126.879 38.5909 128.353 40.2821L128.384 40.3175C128.838 40.8375 129.292 41.3575 129.747 41.8724C133.831 46.4666 137.456 50.0914 141.883 52.8226C143.549 53.8525 145.311 54.6552 147.174 55.5084C148.002 55.8871 148.855 56.2758 149.693 56.6847L152.521 58.063L149.461 57.3208L149.471 57.3158ZM156.13 56.508L155.989 56.4828C148.421 55.1853 141.707 51.6413 136.032 45.9567C133.624 43.5435 131.287 40.9889 129.025 38.5152C127.717 37.0814 126.369 35.6072 125.011 34.1734C124.153 33.2597 123.163 32.3459 121.906 31.3008C117.615 27.7215 113.061 27.1813 107.988 29.6449C102.263 32.4267 97.3504 36.2534 92.8017 39.9338C87.208 44.4623 81.6698 48.804 75.45 52.1209C70.1592 54.943 64.1363 56.508 55.9173 57.1896L55.781 57.1997L55.6801 56.5484L55.8113 56.5181C55.9729 56.4828 56.1344 56.4424 56.301 56.4071L56.3818 56.3869C56.8109 56.2859 57.2451 56.1849 57.6793 56.1042C58.0276 56.0385 58.376 55.9931 58.7294 55.9426C59.0979 55.8921 59.4463 55.8416 59.7896 55.776C64.8936 54.8218 69.6493 53.0044 73.9254 50.3741C80.4278 46.3757 86.2589 41.3019 91.8981 36.3948L93.2712 35.1983C96.5831 32.3206 100.178 29.3168 104.014 26.838C111.173 22.2135 118.665 23.2333 124.572 29.6399C127.233 32.5276 129.833 35.5567 132.347 38.4849L132.433 38.5858C133.225 39.5097 134.013 40.4285 134.81 41.3474C141.848 49.4906 148.421 53.9535 156.125 55.8164L156.261 55.8517L156.125 56.508H156.13ZM162.047 56.4071L161.724 56.3111C160.987 56.089 160.235 55.8871 159.508 55.6902C157.897 55.251 156.231 54.7966 154.651 54.1605C148.653 51.7372 143.297 47.9912 138.743 43.0235C136.88 40.9889 135.043 38.8736 133.266 36.829C131.69 35.0165 130.08 33.1587 128.459 31.3715C126.788 29.5238 124.87 27.6003 122.598 25.4799C118.463 21.633 113.617 20.6788 108.185 22.6578C103.646 24.3087 99.9201 26.4795 96.785 29.2966C94.8464 31.0383 92.9229 32.8305 91.0651 34.5622C87.521 37.8639 83.8558 41.2767 80.0492 44.3916C73.0116 50.157 66.1557 53.7213 59.0878 55.2913C58.9414 55.3216 58.8051 55.3216 58.5931 55.3115C58.4466 55.3115 58.2851 55.3014 58.0579 55.3014H56.3515L57.9267 54.6451C58.1942 54.5341 58.4164 54.4381 58.6082 54.3574C58.9464 54.211 59.209 54.0999 59.4866 54.004C65.8831 51.7725 71.7293 48.1275 77.3584 42.8468C82.4371 38.081 87.3443 33.1991 92.3474 28.196C96.1338 24.4046 99.8697 21.5269 103.762 19.3914C110.557 15.6656 116.903 16.2765 122.113 21.1634C126.294 25.0861 130.105 29.5288 133.796 33.82C134.578 34.7338 135.346 35.6274 136.118 36.516C140.848 41.9734 145.215 46.7897 150.769 50.4599C154.222 52.7419 158.008 54.3574 162.022 55.256L162.38 55.3368L162.047 56.4071ZM169.696 56.0335C164.864 55.3368 160.982 54.2312 157.488 52.5601C152.839 50.3388 148.719 47.3046 145.246 43.5536C142.424 40.5043 139.652 37.3591 136.966 34.3148C134.73 31.7805 132.417 29.1552 130.095 26.6108C126.99 23.2081 124.35 20.5425 121.785 18.2303C117.322 14.2016 110.295 13.3786 104.696 16.2311C100.491 18.3716 96.6083 21.2594 92.8118 25.0508C91.055 26.8077 89.3183 28.6554 87.6422 30.4375C85.2593 32.9719 82.8006 35.5921 80.2209 38.0103C76.1265 41.8573 71.6182 45.679 66.4384 49.6926C63.7324 51.7877 60.3499 53.2467 55.781 54.2816L53.2972 54.8471L55.5438 53.6506C56.3465 53.2265 57.1492 52.8024 57.9519 52.3784L57.9872 52.3582C59.7189 51.4494 61.506 50.5054 63.2427 49.5411C68.1044 46.8401 71.9665 42.7811 75.7024 38.8534L75.9246 38.6212C79.0446 35.3396 82.1241 31.9218 85.0977 28.61C87.6523 25.7727 90.2926 22.8345 92.9633 19.9871C95.432 17.3569 97.9209 15.1204 100.369 13.3433C107.508 8.15849 116.313 8.76431 122.28 14.8478C127.273 19.9417 132.079 25.3739 136.734 30.6243C138.501 32.6185 140.323 34.6833 142.136 36.6977L143.176 37.8589C146.72 41.8169 150.38 45.9163 154.903 49.011C159.563 52.2017 164.097 54.1251 168.762 54.8925C169.211 54.9682 169.615 55.1449 169.958 55.4226L170.922 56.2001L169.696 56.0234V56.0335ZM53.6203 52.6358L53.7717 52.4995C66.181 45.2246 74.9452 33.9513 82.6845 24.0108L83.3307 23.1778C87.6472 17.6244 92.1151 11.8792 97.7493 7.22451C106.771 -0.222034 116.393 2.80202 121.891 7.65364C130.948 15.6454 138.339 24.7731 144.382 32.6538C147.846 37.1723 150.824 40.7819 153.752 44.0231C156.908 47.5116 161.068 50.2327 166.848 52.5904C166.995 52.651 167.146 52.7116 167.292 52.7671C167.792 52.964 168.292 53.1609 168.767 53.4184L170.993 54.6249L168.529 54.0444C161.906 52.4894 156.135 49.1221 151.38 44.0332C148.305 40.7466 145.301 37.2934 142.393 33.9564L142.358 33.916C140.338 31.5987 138.253 29.2057 136.163 26.8884C131.978 22.2438 127.702 17.6598 123.456 13.2625C122.32 12.0812 120.846 10.9554 119.079 9.91032C112.642 6.0987 106.105 6.442 100.183 10.9049C96.3407 13.7977 92.9633 17.2761 90.4491 19.9821C88.2581 22.3397 86.1276 24.8388 84.0678 27.2519C81.7808 29.9327 79.4282 32.6892 76.9696 35.2892C72.7592 39.7419 68.4326 43.8312 64.1111 47.4409C63.4194 48.0215 62.6319 48.6021 61.708 49.223L61.5919 49.3038C61.5919 49.3038 61.3546 49.4603 60.9457 49.7178L60.9103 49.738C60.7286 49.8541 60.562 49.9601 60.3954 50.0611C58.9464 50.9749 56.7655 52.3127 54.5896 53.5092L54.2009 53.7465L54.1857 53.7263C52.5247 54.6249 51.1616 55.2762 50.1267 55.6599L47.143 56.7655L53.6203 52.6156V52.6358Z" fill="white"/>
<path d="M241.723 65.247H234.478C231.257 65.247 227.991 65.2722 224.83 65.2975C217.742 65.353 210.412 65.4086 203.182 65.1965C188.936 64.7775 176.738 69.0788 165.879 78.3378C162.845 80.9277 160.109 83.0127 157.514 84.714C153.349 87.4453 149.042 87.2181 145.054 84.0628C143.428 82.7754 141.868 81.3669 140.359 80.0038L140.313 79.9634C139.652 79.3626 138.986 78.7669 138.319 78.1762C133.488 73.9203 127.722 69.2505 120.417 67.6602C108.402 65.0451 97.7292 63.7173 87.7837 63.6062C84.2194 63.5658 80.6199 63.6719 77.1364 63.7678C75.8339 63.8031 74.5314 63.8435 73.2339 63.8738L73.6277 63.9091C74.5919 64 75.5512 64.0959 76.5154 64.1717C77.9795 64.2878 79.4436 64.3988 80.9026 64.5049C83.3965 64.6917 85.9713 64.8835 88.5157 65.1107C98.8096 66.0245 107.22 70.765 113.511 79.191C119.195 86.8041 124.3 93.453 129.126 99.5163C134.179 105.862 139.137 110.815 144.276 114.657C149.562 118.61 155.217 118.983 160.629 115.742C165.142 113.036 169.12 110.128 172.447 107.099C175.355 104.454 178.006 101.414 180.57 98.4712C181.428 97.4817 182.403 96.366 183.362 95.3008C189.758 88.1723 197.675 80.1199 207.908 74.4454C209.584 73.5165 211.371 72.7289 213.103 71.9716C213.9 71.6233 214.718 71.2648 215.511 70.8963L215.642 70.8357L215.935 71.4415L215.809 71.5071C210.599 74.1425 205.994 77.2776 202.127 80.8317C198.134 84.497 194.393 88.5812 190.773 92.5291L190.738 92.5695C189.617 93.7913 188.501 95.0079 187.371 96.2196C185.376 98.3602 183.392 100.561 181.474 102.692C178.061 106.478 174.542 110.386 170.887 114.041C166.036 118.887 160.603 121.841 154.727 122.815C154.661 122.825 154.586 122.85 154.505 122.881C154.575 122.886 154.641 122.891 154.697 122.886C155.045 122.876 155.403 122.845 155.747 122.815H155.812C155.949 122.795 156.09 122.785 156.226 122.775C162.032 122.33 166.833 119.362 170.367 116.828C175.714 112.996 180.01 107.952 184.17 103.081L184.246 102.99C184.725 102.429 185.205 101.864 185.689 101.303C190.43 95.7854 195.514 89.9291 200.89 84.401C211.396 73.5972 224.437 67.3017 239.643 65.6913C240.178 65.6357 240.728 65.5196 241.258 65.4086C241.42 65.3732 241.576 65.3429 241.728 65.3126L241.718 65.247H241.723ZM111.608 66.6252C121.094 68.2963 129.626 72.8904 138.466 81.0842C140.505 82.9774 142.429 84.6232 144.337 86.1276C149.36 90.0756 154.076 90.126 159.175 86.2942C160.649 85.1836 162.083 83.977 163.466 82.8108C164.314 82.0939 165.192 81.3517 166.071 80.6399C171.963 75.8741 177.672 72.4209 183.534 70.0734C188.072 68.2559 193.126 67.1351 198.553 66.7414C204.197 66.3324 209.705 66.2163 216.238 66.1608H216.647L216.652 66.8373H216.268C208.827 66.908 202.052 67.5693 195.559 68.8718C187.81 70.4268 180.626 73.9304 173.603 79.5797C171.518 81.2558 169.428 83.0076 167.409 84.7039C165.712 86.1276 163.976 87.5866 162.239 88.9952C161.154 89.8787 159.927 90.7268 158.377 91.6658C156.282 92.933 154.172 93.5792 152.092 93.5792C149.729 93.5792 147.442 92.7513 145.291 91.1206C143.1 89.4546 141.045 87.5463 139.061 85.6935L138.976 85.6127C138.269 84.9564 137.562 84.295 136.85 83.6488C135.633 82.5432 134.407 81.4073 133.225 80.3067C131.191 78.4135 129.096 76.4648 126.965 74.6271C123.123 71.3052 118.65 69.1091 113.672 68.0994C113.188 68.0035 112.718 67.8571 112.264 67.7208L111.961 67.6299C111.83 67.5895 111.739 67.5188 111.613 67.4229C111.547 67.3724 111.466 67.3118 111.355 67.2361L110.068 66.3526L111.608 66.6252ZM210.846 68.4578L210.866 68.5386L210.473 68.5841C207.272 68.9375 204.111 69.5433 201.082 70.3864C196.009 71.7949 191.122 73.9153 186.553 76.6819C180.853 80.135 175.385 84.5071 169.352 90.429C168.954 90.8227 168.555 91.2216 168.161 91.6204L168.11 91.6709C166.616 93.1753 165.066 94.7303 163.34 96.0025C161.022 97.7089 158.67 99.0064 156.347 99.8747C154.974 100.385 153.591 100.642 152.233 100.642C149.825 100.642 147.502 99.8141 145.523 98.2491C142.01 95.4724 138.733 92.3575 136.265 89.9544C134.023 87.7684 131.817 85.4966 129.686 83.2954C127.965 81.5234 126.188 79.6857 124.401 77.9087C119.741 73.2741 114.919 70.2905 109.674 68.7911L109.543 68.7507C109.543 68.7507 113.253 68.6295 117.661 70.6388C119.746 71.6384 121.705 72.8702 123.507 74.3495C126.728 76.9949 129.818 79.8877 132.811 82.6845C133.978 83.775 135.149 84.8705 136.325 85.9509C137.214 86.7637 138.102 87.6119 138.96 88.4297L138.996 88.46C140.339 89.7373 141.727 91.06 143.146 92.2969C148.517 96.9718 153.616 97.3454 159.2 93.4682C162.643 91.0752 165.914 88.3086 169.085 85.6329C170.165 84.7191 171.241 83.8154 172.321 82.9168C180.161 76.4345 187.3 72.4209 194.792 70.2854L195.1 70.1996C195.978 69.9522 196.725 69.7654 197.442 69.6089C198.089 69.4675 198.77 69.3262 199.649 69.1596C203.031 68.4478 206.151 67.9379 208.923 67.6501L208.978 67.64C209.397 67.5744 209.831 67.5037 210.26 67.433L210.563 67.3825L210.594 67.4986C213.431 67.2866 214.759 67.4229 214.814 67.428L214.945 67.4431L214.93 68.0994L214.794 68.1095C213.507 68.1852 212.179 68.3064 210.846 68.4679V68.4578ZM213.34 69.1697L213.204 69.2C200.209 72.1887 188.517 79.4081 176.42 91.9132C172.735 95.7248 168.56 99.5011 162.88 104.161C159.927 106.584 156.676 107.811 153.217 107.811C152.107 107.811 150.976 107.68 149.85 107.422C146.786 106.715 143.989 105.1 141.535 102.621C136.911 97.9512 132.963 93.7256 129.464 89.707L128.702 88.8336C123.446 82.7956 118.014 76.5506 111.441 71.6637C111.315 71.5677 111.264 71.4415 111.204 71.2901C111.173 71.2143 111.138 71.1235 111.088 71.0124L110.694 70.1592L111.542 70.5631C115.328 72.3755 117.959 74.1425 120.074 76.2982C122.598 78.8679 125.127 81.5234 127.571 84.088C130.433 87.0969 133.392 90.2018 136.381 93.2107C138.774 95.6188 141.51 98.0118 144.514 100.329C149.214 103.944 154.414 104.156 159.563 100.94C163.855 98.2592 167.515 95.3765 170.438 92.3726C176.774 85.8601 183.342 80.5389 190.511 76.1164C198.119 71.4213 206.56 69.5988 213.067 68.5285L213.209 68.5083L213.34 69.1646V69.1697ZM221.69 68.7911C220.867 68.9627 220.029 69.1596 219.196 69.3767L219.232 69.513L217.192 69.9371C206.802 73.0318 198.881 78.5296 195.963 80.7459C192.247 83.6387 188.512 87.0969 184.2 91.6254C178.101 98.037 173.073 103.136 168.373 107.675C165.263 110.679 161.512 112.965 157.211 114.485C155.762 114.995 154.338 115.258 152.985 115.258C151.203 115.258 149.497 114.813 147.916 113.93L147.447 113.667C145.433 112.552 143.353 111.395 141.737 109.785C136.825 104.893 132.66 100.43 129.005 96.1388C126.506 93.2056 124.098 90.1109 121.77 87.1222C119.912 84.7342 117.994 82.2706 116.035 79.8978C114.935 78.565 113.723 77.2675 112.552 76.0205C111.36 74.7432 110.133 73.4357 108.992 72.0574L106.897 69.5231L109.467 71.5778C109.891 71.9161 110.335 72.2442 110.764 72.5572C111.724 73.264 112.713 73.991 113.526 74.8745C119.201 81.0943 123.881 86.3447 128.263 91.4134C128.672 91.8829 129.075 92.3524 129.479 92.827L129.58 92.9431C133.458 97.4514 137.466 102.111 142.272 105.827C143.898 107.084 145.645 108.392 147.543 109.315C151.854 111.411 156.388 110.921 161.022 107.861C164.476 105.58 167.656 103.116 170.478 100.531C173.174 98.0623 175.784 95.4118 178.303 92.8472C179.707 91.4185 181.161 89.9392 182.62 88.5055C187.305 83.8962 191.904 80.1956 196.69 77.1918L196.72 77.1716C204.874 71.911 213.345 69.6442 217.672 68.7658L218.929 68.367L218.969 68.5184C220.509 68.2408 221.473 68.1398 221.584 68.1297L221.721 68.1146L221.822 68.7709L221.685 68.8011L221.69 68.7911Z" fill="white"/>
<path d="M119.367 89.8181C119.145 89.6363 118.953 89.5505 118.817 89.5758C118.554 89.6161 118.302 90.02 118.054 90.4188L117.131 91.9031C116.161 93.4581 115.162 95.0685 114.137 96.6184C111.461 100.657 108.053 104.206 103.994 107.16C97.4565 111.92 91.5043 111.814 85.2542 106.816C79.6756 102.359 75.0209 96.9668 70.8256 91.8072C65.0299 84.6787 59.6785 78.3782 52.8327 73.4811C52.5853 73.3044 52.3531 73.1025 52.131 72.9106C52.03 72.8248 51.929 72.739 51.823 72.6532L51.5655 72.4411L51.5756 72.431C50.1116 71.2699 48.6475 70.0936 48.6475 70.0936L46.5524 68.4175L48.9959 69.518C49.8995 69.9219 51.0254 70.5782 52.3531 71.4718L52.4036 71.4112L52.6661 71.6233C52.8176 71.7444 52.969 71.8656 53.1205 71.9868L53.3275 72.1483C56.2405 74.203 59.0878 76.6263 59.1131 76.6516L59.1434 76.6768C60.6983 77.9339 61.9301 79.0193 63.0055 80.0997C65.4994 82.5937 67.8722 85.2896 70.1592 87.8997C72.0928 90.0958 74.0667 92.3423 76.0962 94.4577C79.5494 98.0471 82.8209 101.031 86.0923 103.57C91.4891 107.766 97.4666 107.892 103.383 103.934C108.397 100.576 112.536 95.8864 116.797 88.7327C116.954 88.4701 116.959 88.0713 116.969 87.6472C116.969 87.516 116.969 87.3898 116.979 87.2686L116.737 87.1929C116.646 87.2938 116.555 87.3998 116.459 87.5008C116.161 87.829 115.878 88.1369 115.692 88.4853C112.637 94.2608 108.331 98.9003 102.899 102.273C97.4767 105.645 92.1959 105.645 87.2131 102.283C85.5269 101.147 84.0224 100.097 82.73 98.7842C78.6003 94.594 74.506 90.2321 70.6641 86.1175C68.4326 83.7296 66.1002 81.3113 63.5911 79.0193C64.313 79.5898 64.3231 79.5646 61.4606 77.1413C55.7609 72.3099 50.6063 69.2151 50.6063 69.2151L50.7325 69.2606C56.8867 71.5677 64.5604 76.6718 69.826 81.9626C71.2598 83.4014 72.6885 84.8503 74.1122 86.2993L74.1677 86.3548C77.2625 89.495 80.4582 92.7361 83.6741 95.8561C88.5307 100.561 93.9276 101.95 99.7233 99.9757C107.215 97.4262 111.537 91.2014 115.323 85.0422C115.313 84.9463 115.207 84.6686 115.157 84.5323C115.131 84.4667 115.106 84.401 115.081 84.3304L114.778 84.7292C114.419 85.2088 114.147 85.5622 113.884 85.9257C111.628 89.0305 108.498 92.9784 104.317 95.9369C98.3349 100.168 91.7769 100.072 86.3144 95.6794C83.6135 93.5085 81.1498 90.9742 78.7619 88.5206C78.1459 87.8896 77.5351 87.2585 76.9191 86.6375C72.7895 82.4624 67.7713 77.6764 61.8847 73.885C61.2435 73.4963 55.4529 70.0128 50.1772 68.3872L50.0459 68.3468L50.1974 67.7056L50.3337 67.7258C50.3741 67.7309 54.731 68.5184 60.9507 71.3506L61.0365 71.391L61.0668 71.4365C61.5565 71.6485 61.9453 71.8353 62.3138 72.0271C69.9371 76.0205 76.0306 81.7708 80.4834 86.3346C82.8814 88.7882 85.1533 90.7823 87.4352 92.4332C92.1303 95.8309 98.5772 95.8712 103.464 92.5342C107.397 89.8484 110.209 86.2639 112.445 83.1036C112.658 82.8057 112.865 82.4624 112.804 82.1847C112.769 82.0181 112.642 81.8566 112.415 81.695C112.324 81.8011 112.239 81.902 112.148 82.008L112.122 82.0383C111.769 82.4473 111.406 82.8713 111.082 83.3207C108.573 86.794 105.832 89.3789 102.697 91.2216C98.3349 93.7913 93.8014 93.8215 89.2224 91.3124C87.2686 90.2422 85.547 88.7074 83.881 87.2231L83.356 86.7536C82.109 85.648 80.8974 84.4566 79.7312 83.3055C78.8073 82.3968 77.8582 81.4628 76.8889 80.5692C68.7204 73.0419 60.8043 68.9021 51.9745 67.5491C51.4292 67.4633 50.9042 67.3573 50.2933 67.2311C49.9955 67.1705 49.6825 67.1048 49.3493 67.0392L48.183 66.812C48.183 66.812 52.6813 66.4384 57.8156 67.7309C66.3577 69.9572 74.2132 74.304 81.2407 80.7106C83.3509 82.6341 85.5319 84.6181 87.8643 86.3599C92.2666 89.6414 96.4518 90.4188 100.667 88.7377C104.893 87.0515 107.892 83.6034 110.27 80.4531C110.512 80.13 110.618 79.8473 110.572 79.6403C110.542 79.4939 110.431 79.3525 110.249 79.2213C109.916 79.5949 109.583 79.9684 109.26 80.342L109.124 80.2764L109.235 80.3723C108.397 81.3315 107.528 82.316 106.594 83.2045C100.844 88.667 94.9019 89.0911 88.4398 84.502C86.5719 83.1742 84.7898 81.7152 83.1541 80.1603C78.8931 76.1164 74.8038 73.153 70.5984 71.0326L70.6842 71.0578C70.558 70.9972 70.4318 70.9417 70.3056 70.8811C69.9219 70.6893 69.5332 70.5126 69.1445 70.3359C69.1041 70.3157 69.0586 70.3005 69.0182 70.2804C68.266 69.9421 67.5138 69.6342 66.7515 69.3464C59.3756 66.4839 51.9391 65.3429 51.9391 65.3429L52.2219 65.353L52.3683 65.3429L52.7721 65.3732C68.6648 65.9538 76.8586 71.7141 77.2019 71.9615C80.0694 73.6578 82.8512 75.763 85.4663 78.2065C87.1676 79.8018 89.1365 81.2508 91.3175 82.5179C93.5742 83.8255 95.8864 84.2647 98.1936 83.8255C102.55 82.9874 105.479 79.9432 107.887 77.1564C107.957 77.0756 107.957 76.8182 107.947 76.596C107.276 77.0403 106.816 77.525 106.367 77.9945L106.206 78.1611C102.52 81.9727 98.3551 82.9774 93.4631 81.2306C90.2422 80.0795 87.8239 78.0096 85.229 75.6217C79.085 69.9825 72.739 66.7262 65.8225 65.661C61.6777 65.0249 57.3663 64.8785 53.696 64.8179C47.7236 64.722 41.6705 64.7421 35.8193 64.7623C33.7494 64.7674 31.6795 64.7775 29.6045 64.7775C29.1653 64.7775 28.7059 64.828 28.2667 64.8734C28.2162 64.8785 28.1657 64.8835 28.1152 64.8886L28.297 64.9138C28.711 64.9693 29.13 65.0198 29.544 65.0753C37.1571 66.1002 43.1194 68.1045 48.2992 71.3809C52.9993 74.3495 57.437 78.3883 62.2583 84.088C64.7018 86.9758 67.1503 89.9241 69.513 92.7765C72.0726 95.8611 74.7029 99.0366 77.3281 102.131C80.0543 105.337 83.2601 108.038 86.8698 110.153C89.7626 111.85 92.7412 112.526 95.9672 112.213C100.041 111.819 103.282 109.548 105.999 107.447C111.562 103.151 115.151 97.1233 118.62 91.2973L119.392 90.0049C119.392 90.0049 119.382 89.9645 119.377 89.9392C119.372 89.909 119.362 89.8736 119.357 89.8433L119.367 89.8181Z" fill="white"/>
<path d="M161.699 66.7969C154.071 67.3977 144.812 68.1903 136.062 70.4066C140.581 71.487 144.024 73.3246 146.841 76.1568C152.304 71.6889 156.933 68.7709 161.699 66.7969ZM142.434 72.7087L142.247 72.6077C141.676 72.2998 141.146 72.017 140.687 71.7798L140.086 71.4668L140.692 71.1739C142.827 70.134 144.933 69.4625 146.952 69.1697L148.876 68.892L147.164 69.8058C147.164 69.8058 144.68 71.1386 142.605 72.5926L142.434 72.7137V72.7087ZM143.504 73.2085L143.862 72.951C144.039 72.8248 148.199 69.8967 153.207 69.1697L155.131 68.892L153.419 69.8058C153.187 69.932 151.142 71.0376 149.244 72.33L145.922 75.1774L143.509 73.2135L143.504 73.2085Z" fill="white"/>
</svg>
